<svg width="34" height="34" viewBox="0 0 34 34" fill="none" xmlns="http://www.w3.org/2000/svg">
<path d="M10.6388 28.0525C12.5109 29.1322 14.6831 29.7499 16.9995 29.7499C24.0411 29.7499 29.75 24.0416 29.75 17C29.75 9.95837 24.0416 4.25 17 4.25C9.95837 4.25 4.25 9.95837 4.25 17C4.25 19.3164 4.86773 21.4885 5.94744 23.3607L5.95162 23.3679C6.05551 23.548 6.1079 23.6389 6.13163 23.7247C6.15401 23.8057 6.16026 23.8785 6.15453 23.9623C6.14837 24.0523 6.11802 24.1457 6.0558 24.3324L4.96663 27.5999L4.96526 27.6042C4.73546 28.2936 4.62056 28.6383 4.70246 28.8679C4.77387 29.0682 4.93239 29.2263 5.13265 29.2977C5.36182 29.3794 5.70498 29.265 6.39136 29.0362L6.3999 29.0331L9.6674 27.9439C9.85345 27.8819 9.94803 27.8504 10.0379 27.8443C10.1217 27.8385 10.194 27.8461 10.275 27.8685C10.3611 27.8923 10.4519 27.9447 10.633 28.0491L10.6388 28.0525Z" stroke="#8D8D8D" stroke-width="2" stroke-linecap="round" stroke-linejoin="round"/>
</svg>
