<svg width="22" height="22" viewBox="0 0 22 22" fill="none" xmlns="http://www.w3.org/2000/svg">
<g id="Menu/Interface/Bookmark">
<path id="Vector" d="M5.5 6.29144V14.0712C5.5 15.1876 5.5 15.7456 5.68711 16.0872C6.03391 16.7203 6.79394 17.0842 7.57503 16.9912C7.99645 16.941 8.5155 16.6314 9.55359 16.0122L9.55608 16.0107C9.96754 15.7652 10.1733 15.6425 10.3885 15.5744C10.7839 15.4494 11.2152 15.4494 11.6105 15.5744C11.8262 15.6426 12.0328 15.7658 12.4459 16.0123C13.484 16.6315 14.0036 16.9409 14.425 16.9911C15.2061 17.084 15.9661 16.7203 16.3129 16.0872C16.5 15.7457 16.5 15.1874 16.5 14.0712V6.28875C16.5 5.37183 16.5 4.91268 16.3004 4.56212C16.1246 4.25346 15.8434 4.00269 15.4984 3.84542C15.1063 3.66663 14.5936 3.66663 13.5668 3.66663H8.43351C7.40675 3.66663 6.89299 3.66663 6.50081 3.84542C6.15585 4.00269 5.87559 4.25346 5.69982 4.56212C5.5 4.91303 5.5 5.37273 5.5 6.29144Z" stroke="#6F6F6F" stroke-width="2" stroke-linecap="round" stroke-linejoin="round"/>
</g>
</svg>
