
<svg width="654" height="466" viewBox="0 0 654 466" fill="none" xmlns="http://www.w3.org/2000/svg">
<path d="M212.106 325.625C112.954 325.625 32.6751 333.031 32.6751 342.457C32.6751 348.741 68.7303 354.128 122.531 357.045C48.7309 359.963 0 365.125 0 370.96C0 377.469 62.5333 383.304 152.953 385.997C145.348 387.568 145.066 392.057 146.193 393.404C156.333 405.523 226.472 407.319 325.624 407.319C495.759 407.319 604.489 380.387 604.489 361.983C604.77 339.091 480.83 325.625 212.106 325.625Z" fill="#B2EBF2"/>
<path d="M351.699 312.462C378.86 316.459 394.724 296.099 394.918 263.526C369.687 264.856 343.081 283.5 351.699 312.462Z" fill="url(#paint0_linear_1_5581)"/>
<path d="M352.538 312.827C352.303 312.631 352.262 312.275 352.448 312.028C355.61 307.882 361.452 301.429 367.633 294.598C375.112 286.338 383.584 276.979 389.354 269.474C389.541 269.229 389.889 269.19 390.124 269.383C390.359 269.579 390.397 269.938 390.207 270.185C384.409 277.724 375.923 287.102 368.43 295.378C362.263 302.191 356.438 308.627 353.308 312.733C353.201 312.875 353.039 312.949 352.876 312.949C352.759 312.949 352.638 312.909 352.538 312.827Z" fill="#F48FB1"/>
<path d="M351.18 327.72C361.268 294.575 392.231 287.538 428.324 304.996C413.384 333.044 378.577 353.268 351.18 327.72Z" fill="url(#paint1_linear_1_5581)"/>
<path d="M351.733 327.926C351.48 327.926 351.253 327.743 351.194 327.473C351.124 327.163 351.315 326.849 351.612 326.779C357.829 325.299 368.074 321.874 378.913 318.249C392.079 313.846 407.002 308.857 418.435 306.079C418.735 306.007 419.028 306.201 419.098 306.515C419.168 306.825 418.984 307.139 418.684 307.211C407.295 309.977 392.395 314.961 379.246 319.355C368.382 322.989 358.122 326.419 351.854 327.911C351.814 327.92 351.773 327.926 351.733 327.926Z" fill="#B2EBF2"/>
<path d="M393.272 329.076C393.155 329.076 393.038 329.033 392.941 328.947L381.296 318.519C381.081 318.326 381.055 317.987 381.237 317.761C381.419 317.533 381.745 317.506 381.956 317.699L393.601 328.13C393.815 328.321 393.845 328.662 393.659 328.888C393.562 329.012 393.415 329.076 393.272 329.076" fill="#B2EBF2"/>
<path d="M389.703 314.118C389.625 314.118 389.547 314.1 389.473 314.067C389.213 313.942 389.101 313.639 389.23 313.384L395.082 301.749C395.21 301.495 395.524 301.39 395.788 301.513C396.048 301.635 396.16 301.941 396.031 302.193L390.179 313.83C390.088 314.011 389.899 314.118 389.703 314.118Z" fill="#B2EBF2"/>
<path d="M369.012 322.173C368.953 322.173 368.894 322.165 368.835 322.145C368.541 322.047 368.382 321.731 368.479 321.438L374.262 304.146C374.359 303.852 374.681 303.696 374.971 303.791C375.269 303.889 375.428 304.204 375.331 304.498L369.548 321.79C369.468 322.025 369.25 322.173 369.012 322.173Z" fill="#B2EBF2"/>
<path d="M297.063 342.884C244.283 342.884 201.497 340.051 201.497 336.554C201.497 333.061 244.283 330.227 297.063 330.227C349.844 330.227 392.63 333.061 392.63 336.554C392.63 340.051 349.844 342.884 297.063 342.884Z" fill="#00BCD4"/>
<mask id="mask0_1_5581" style="mask-type:luminance" maskUnits="userSpaceOnUse" x="236" y="113" width="123" height="225">
<path fill-rule="evenodd" clip-rule="evenodd" d="M358.074 325.923C358.074 332.082 353.002 337.12 346.803 337.12H247.326C241.127 337.12 236.055 332.082 236.055 325.923L236.055 125.111C236.055 118.952 241.127 113.914 247.326 113.914H346.803C353.002 113.914 358.074 118.952 358.074 125.111V325.923Z" fill="white"/>
</mask>
<g mask="url(#mask0_1_5581)">
<path d="M358.076 325.923C358.076 332.081 353.005 337.12 346.805 337.12H247.329C241.129 337.12 236.055 332.081 236.055 325.923L236.055 125.11C236.055 118.952 241.129 113.914 247.329 113.914H346.805C353.005 113.914 358.076 118.952 358.076 125.11V325.923Z" fill="url(#paint2_linear_1_5581)"/>
</g>
<path d="M241.825 317.552H352.331V125.448H241.825L241.825 317.552" fill="white"/>
<path d="M280.964 258.895C280.964 257.629 281.984 256.603 283.244 256.603C284.503 256.603 285.524 257.629 285.524 258.895C285.524 260.16 284.503 261.186 283.244 261.186C281.984 261.186 280.964 260.16 280.964 258.895Z" fill="white"/>
<path d="M317.813 222.074C317.813 220.809 318.839 219.784 320.103 219.784C321.371 219.784 322.394 220.809 322.394 222.074C322.394 223.338 321.371 224.363 320.103 224.363C318.839 224.363 317.813 223.338 317.813 222.074Z" fill="white"/>
<path d="M180.369 302.327C185.644 297.191 195.034 294.504 193.847 284.792C192.663 275.079 180.821 274.706 172.843 279.542C164.868 284.379 163.898 294.663 167.081 300.623C170.043 306.166 175.092 315.658 178.7 315.677C184.655 315.704 175.094 307.464 180.369 302.327Z" fill="url(#paint3_linear_1_5581)"/>
<path d="M184.697 269.422C188.558 260.867 198.658 254.105 207.628 260.884C205.373 270.807 196.118 273.626 184.697 269.422Z" fill="url(#paint4_linear_1_5581)"/>
<path d="M181.479 239.423C194.284 238.395 208.952 245.734 206.566 260.456C193.147 264.216 183.778 255.324 181.479 239.423Z" fill="url(#paint5_linear_1_5581)"/>
<path d="M223.977 274.904C223.84 274.904 223.703 274.853 223.596 274.751C221.721 272.944 218.296 270.169 214.671 267.23C210.259 263.653 205.257 259.599 201.764 256.263C201.545 256.053 201.536 255.706 201.745 255.487C201.953 255.268 202.301 255.26 202.521 255.469C205.984 258.775 210.966 262.814 215.362 266.379C219.006 269.332 222.447 272.122 224.358 273.961C224.575 274.171 224.581 274.518 224.372 274.736C224.265 274.848 224.12 274.904 223.977 274.904" fill="#E23D79"/>
<path d="M172.59 327.631C172.251 324.207 164.533 319.81 157.031 323.427C141.648 330.836 141.914 340.584 134.539 343.923C130.185 345.895 127.262 347.257 124.352 347.154C129.302 349.206 146.842 353.617 156.89 346.767C166.94 339.918 173.174 333.506 172.59 327.631Z" fill="#D1C4E9"/>
<path d="M206.274 335.264C206.233 335.264 206.189 335.258 206.148 335.247C202.337 334.322 200.802 331.567 199.449 329.135C198.514 327.456 197.706 326.003 196.306 325.349C195.585 325.008 194.473 324.751 193.185 324.449C188.118 323.267 179.637 321.289 175.875 310.021C175.779 309.728 175.93 309.412 176.218 309.312C176.505 309.211 176.815 309.368 176.914 309.661C180.479 320.339 188.272 322.158 193.429 323.359C194.777 323.675 195.939 323.946 196.763 324.332C198.484 325.139 199.416 326.813 200.402 328.585C201.707 330.927 203.055 333.347 206.403 334.16C206.696 334.233 206.877 334.532 206.809 334.833C206.748 335.09 206.524 335.264 206.274 335.264Z" fill="#D1C4E9"/>
<path d="M204.658 337.662C204.627 337.662 204.596 337.659 204.566 337.654C198.831 336.723 192.331 335.671 185.746 329.579C179.413 323.727 174.227 319.418 165.119 317.31C155.854 315.164 147.67 311.149 147.588 311.108C147.314 310.972 147.204 310.647 147.344 310.378C147.483 310.112 147.818 310.004 148.093 310.139C148.173 310.18 156.245 314.139 165.375 316.255C174.757 318.425 180.054 322.821 186.513 328.793C192.852 334.653 199.171 335.679 204.75 336.582C205.053 336.634 205.257 336.913 205.207 337.209C205.162 337.472 204.925 337.662 204.658 337.662Z" fill="#D1C4E9"/>
<path d="M203.849 340.061C203.824 340.061 203.796 340.058 203.768 340.055C189.244 337.92 185.758 334.512 182.065 330.909C181.093 329.958 180.085 328.976 178.856 328.002C173.438 323.715 163.571 329.123 159.488 332.974C159.264 333.187 158.909 333.175 158.699 332.945C158.486 332.715 158.5 332.355 158.727 332.142C162.613 328.476 173.248 322.122 179.545 327.105C180.822 328.115 181.849 329.121 182.843 330.092C186.402 333.564 189.762 336.846 203.93 338.93C204.236 338.976 204.448 339.263 204.404 339.575C204.364 339.856 204.124 340.061 203.849 340.061" fill="#D1C4E9"/>
<path d="M178.818 348.854C178.709 348.854 178.597 348.821 178.502 348.754C178.248 348.578 178.184 348.229 178.36 347.974C182.333 342.258 188.058 338.693 194.918 337.668C195.223 337.623 195.508 337.833 195.552 338.137C195.6 338.442 195.388 338.727 195.083 338.772C188.444 339.766 183.127 343.077 179.279 348.614C179.17 348.771 178.997 348.854 178.818 348.854Z" fill="#D1C4E9"/>
<path d="M183.267 343.924L183.341 343.374C182.814 343.308 182.141 343.258 181.385 343.258C180.041 343.258 178.431 343.416 176.92 343.946C176.164 344.211 175.434 344.573 174.778 345.059C174.124 345.548 173.55 346.164 173.119 346.926C172.59 347.863 172.143 349.009 171.713 350.235C171.068 352.075 170.459 354.099 169.743 355.806C169.387 356.66 169.005 357.43 168.589 358.055C168.173 358.679 167.726 359.148 167.264 359.425C167.046 359.554 166.947 359.814 167.018 360.052C167.092 360.292 167.321 360.455 167.579 360.446C168.422 360.422 169.54 360.3 170.807 360.068C172.703 359.72 174.928 359.129 176.991 358.259C179.054 357.383 180.961 356.234 182.215 354.704C183.038 353.696 183.562 352.638 183.876 351.594C184.19 350.55 184.294 349.52 184.294 348.55C184.294 347.598 184.193 346.703 184.085 345.91C183.978 345.117 183.864 344.421 183.833 343.891C183.816 343.626 183.61 343.41 183.341 343.374L183.267 343.924L182.701 343.954C182.741 344.576 182.857 345.28 182.962 346.056C183.069 346.83 183.163 347.675 183.163 348.55C183.163 349.443 183.066 350.362 182.789 351.282C182.512 352.202 182.059 353.122 181.329 354.016C180.618 354.889 179.603 355.665 178.417 356.331C176.643 357.328 174.5 358.071 172.514 358.566C170.527 359.063 168.688 359.311 167.545 359.342L167.562 359.894L167.859 360.364C168.742 359.828 169.412 358.949 169.99 357.908C170.855 356.342 171.512 354.37 172.152 352.461C172.785 350.553 173.402 348.708 174.11 347.459C174.461 346.841 174.922 346.344 175.465 345.938C176.28 345.33 177.285 344.932 178.329 344.689C179.371 344.446 180.446 344.363 181.385 344.363C182.09 344.363 182.715 344.41 183.194 344.471L183.267 343.924L182.701 343.954L183.267 343.924Z" fill="#D1C4E9"/>
<path d="M327 185.251C327 183.988 328.031 182.963 329.303 182.963C330.577 182.963 331.606 183.988 331.606 185.251C331.606 186.515 330.577 187.539 329.303 187.539C328.031 187.539 327 186.515 327 185.251Z" fill="white"/>
<path d="M223.582 223.786C223.839 225.665 225.235 231.219 224.061 233.224C223.099 234.87 221.12 235.149 217.934 234.131C214.745 233.113 214.615 227.673 214.195 226.104C213.536 223.616 223.039 219.829 223.582 223.786Z" fill="#FFD8D8"/>
<path d="M222.542 234.526C222.734 235.498 223.373 237.414 223.373 237.414C222.899 237.982 219.832 238.902 216.465 237.2C216.709 235.414 216.546 231.274 216.546 231.274L222.542 234.526Z" fill="#FFD3C9"/>
<path d="M207.327 241.63C205.757 243.526 202.208 259.144 202.693 264.269C203.105 268.617 208.719 280.75 208.719 280.75C209.298 279.918 210.073 277.5 210.073 277.5C209.298 276.903 206.178 266.182 206.178 263.027C206.178 259.872 210.708 251.926 210.708 251.926L207.327 241.63Z" fill="#FFD8D8"/>
<mask id="mask1_1_5581" style="mask-type:luminance" maskUnits="userSpaceOnUse" x="206" y="237" width="26" height="37">
<path fill-rule="evenodd" clip-rule="evenodd" d="M231.04 273.841C228.611 261.054 230.665 257.702 231.04 255.242C231.921 249.475 231.343 242.701 228.267 240.326C222.47 235.848 212.647 235.332 206.599 242.687C204.681 245.018 209.172 252.278 209.776 261.1C210.33 269.163 210.013 271.438 209.242 273.841C211.003 273.841 231.04 273.841 231.04 273.841Z" fill="white"/>
</mask>
<g mask="url(#mask1_1_5581)">
<path d="M231.04 273.841C228.611 261.054 230.665 257.702 231.04 255.242C231.921 249.475 231.343 242.701 228.267 240.326C222.47 235.848 212.647 235.332 206.599 242.687C204.681 245.018 209.172 252.278 209.776 261.1C210.33 269.163 210.013 271.438 209.242 273.841C211.003 273.841 231.04 273.841 231.04 273.841Z" fill="url(#paint6_linear_1_5581)"/>
</g>
<path d="M225.056 224.361C227.237 223.643 228.326 217.255 222.719 218.881C217.112 220.507 211.784 222.494 213.281 226.107C214.776 229.721 211.66 230.234 211.16 233.831C210.732 236.919 212.692 238.474 209.683 240.584C207.424 242.167 209.338 244.688 208.482 245.901C206.493 248.722 206.536 252.531 211.505 254.111C218.607 256.369 226.711 255.892 223.811 251.521C221.475 247.998 221.926 247.968 223.469 246.025C225.01 244.083 220.041 241.48 222.027 239.56C223.142 238.48 220.552 235.139 221.006 233.154C221.36 231.604 223.593 232.01 223.593 229.36C223.593 226.176 222.647 225.154 225.056 224.361Z" fill="#131147"/>
<path d="M246.401 248.434L244.361 246.767C244.361 246.767 238.425 253.927 234.71 257.018C233.534 252.961 231.868 247.678 230.906 245.081C228.745 239.255 227.801 238.893 225.856 239.585C223.988 240.251 224.42 244.128 225.139 246.825C226.422 251.625 228.917 257.568 230.624 261.152C231.989 264.013 234.204 265.851 236.256 263.708C239.051 260.783 246.401 248.434 246.401 248.434Z" fill="#FFD8D8"/>
<path d="M245.25 246.033C245.727 245.45 246.191 243.732 246.871 242.866C247.964 241.478 251.529 240.206 252.098 240.53C252.616 240.825 249.655 241.797 249.39 242.265C249.834 242.66 251.379 244.183 250.539 244.952C249.699 245.721 249.118 246.259 248.414 246.436C247.842 246.579 247.272 247.383 247.272 247.383L245.25 246.033" fill="#FFF3E0"/>
<mask id="mask2_1_5581" style="mask-type:luminance" maskUnits="userSpaceOnUse" x="187" y="359" width="74" height="7">
<path fill-rule="evenodd" clip-rule="evenodd" d="M187.693 362.436C187.693 360.538 203.927 359.001 223.949 359.001C243.971 359.001 260.204 360.538 260.204 362.436C260.204 364.334 243.971 365.871 223.949 365.871C203.927 365.871 187.693 364.334 187.693 362.436Z" fill="white"/>
</mask>
<g mask="url(#mask2_1_5581)">
<path d="M187.693 362.436C187.693 360.538 203.927 359.001 223.949 359.001C243.971 359.001 260.204 360.538 260.204 362.436C260.204 364.334 243.971 365.871 223.949 365.871C203.927 365.871 187.693 364.334 187.693 362.436Z" fill="url(#paint7_linear_1_5581)"/>
</g>
<path d="M212.076 362.444C211.425 362.444 211.252 362.444 211.228 362.444C211.228 362.444 210.397 360.842 210.835 358.787C211.11 357.489 211.404 357.8 211.701 358.137C212.375 358.76 215.129 358.966 215.347 357.916C216.055 358.035 223.373 360.431 223.373 361.2C223.373 362.447 222.513 362.444 221.928 362.444C215.006 362.444 215.924 361.958 213.196 361.233C212.729 361.233 212.149 361.821 212.076 362.444Z" fill="#311B92"/>
<path d="M214.664 356.826C214.461 355.603 211.861 354.682 211.995 356.826C212.026 357.319 211.981 357.796 211.859 358.193H211.861C212.383 359.213 217.874 361.123 218.767 359.536C218.143 359.08 214.664 358.126 214.664 356.826Z" fill="#FFF3E0"/>
<path d="M225.676 273.847C225.115 284.211 220.741 298.526 219.922 311.721C219.099 324.916 214.032 357.842 214.032 357.842C212.519 357.842 210.483 357.77 210.483 357.77C209.661 354.114 204.959 325.503 209.67 315.522C207.852 308.657 202.983 285.279 209.069 273.847C214.659 273.847 225.676 273.847 225.676 273.847Z" fill="#006064"/>
<path d="M228.164 361.233C227.697 361.233 227.12 361.821 227.047 362.444C226.393 362.444 226.22 362.444 226.197 362.444C226.197 362.444 225.365 360.842 225.803 358.787C226.081 357.489 226.372 357.8 226.669 358.137C227.346 358.76 230.097 358.966 230.315 357.916C231.026 358.035 238.341 360.431 238.341 361.2C238.341 362.447 237.481 362.444 236.896 362.444C229.974 362.444 230.892 361.958 228.164 361.233Z" fill="#311B92"/>
<path d="M228.48 356.826C228.277 355.603 225.678 354.682 225.811 356.826C225.843 357.319 225.8 357.796 225.676 358.193H225.678C226.2 359.213 231.689 361.123 232.584 359.536C231.958 359.08 228.48 358.126 228.48 356.826Z" fill="#FFF3E0"/>
<path d="M231.607 273.847C233.597 279.874 235.505 298.526 234.698 311.721C233.893 324.916 230.571 357.842 230.571 357.842C229.087 357.842 227.089 357.77 227.089 357.77C226.281 354.114 221.066 323.962 224.122 315.522C221.701 310.754 210.614 287.834 215.308 273.847C220.795 273.847 231.607 273.847 231.607 273.847Z" fill="#006064"/>
<path d="M56.9559 157.635H123.329C125.802 157.635 127.807 159.621 127.807 162.071V193.47C127.807 195.92 125.802 197.906 123.329 197.906H56.9559C54.4832 197.906 52.478 195.92 52.478 193.47L52.478 162.071C52.478 159.621 54.4832 157.635 56.9559 157.635Z" fill="url(#paint8_linear_1_5581)"/>
<path d="M54.0723 192.997L54.0723 161.754C54.0723 159.918 55.5838 158.424 57.4411 158.424H123.641C125.498 158.424 127.01 159.918 127.01 161.754V192.997C127.01 194.833 125.498 196.327 123.641 196.327H57.4411C55.5838 196.327 54.0723 194.833 54.0723 192.997Z" fill="white"/>
<path fill-rule="evenodd" clip-rule="evenodd" d="M76.4478 171.159C76.8775 171.021 77.1889 170.62 77.1889 170.148C77.1889 169.561 76.7093 169.083 76.1146 169.083H72.9199C72.9821 168.312 73.2312 167.43 72.9541 166.39C72.7206 165.514 71.7273 164.857 71.3225 165.255C71.1668 165.406 71.2135 165.724 71.2135 166.298C71.2135 167.618 70.6593 168.954 69.9742 169.651C69.6815 169.95 69.1896 170.052 68.7225 170.07V169.577H65.2319V176.981H68.7194V175.993C69.3608 175.978 70.3572 176.154 71.0796 176.197C72.6988 176.293 74.2557 176.123 75.0123 175.947C75.769 175.771 76.1022 175.546 76.1022 175.003C76.1022 174.806 76.043 174.624 75.9434 174.469C76.3108 174.324 76.5692 173.97 76.5692 173.553C76.5692 173.331 76.4945 173.128 76.3699 172.961C76.7405 172.819 77.0052 172.461 77.0052 172.042C77.002 171.656 76.7747 171.32 76.4478 171.159ZM66.7266 175.984C66.4525 175.984 66.2283 175.765 66.2283 175.491C66.2283 175.219 66.4525 174.997 66.7266 174.997C67.0006 174.997 67.2248 175.216 67.2248 175.491C67.2248 175.762 67.0006 175.984 66.7266 175.984Z" fill="#673AB7"/>
<path d="M45.1058 171.453C50.9379 171.453 55.6664 176.138 55.6664 181.916C55.6664 187.694 50.9379 192.379 45.1058 192.379C39.2709 192.379 34.5425 187.694 34.5425 181.916C34.5425 176.138 39.2709 171.453 45.1058 171.453Z" fill="url(#paint9_linear_1_5581)"/>
<path d="M44.9054 186.062C44.6842 186.062 44.5068 185.829 44.5068 185.543V177.894C44.5068 177.608 44.6842 177.375 44.9054 177.375C45.1246 177.375 45.304 177.608 45.304 177.894V185.543C45.304 185.829 45.1246 186.062 44.9054 186.062Z" fill="white"/>
<path d="M48.7664 182.113H41.044C40.7564 182.113 40.521 181.937 40.521 181.718C40.521 181.501 40.7564 181.324 41.044 181.324H48.7664C49.0567 181.324 49.2894 181.501 49.2894 181.718C49.2894 181.937 49.0567 182.113 48.7664 182.113Z" fill="white"/>
<path d="M88.5418 167.505V169.314H84.5737V170.883C84.8702 170.802 85.211 170.762 85.5962 170.762C86.5633 170.762 87.3973 171.035 88.0984 171.58C88.7967 172.125 89.1458 172.859 89.1458 173.784C89.1458 174.709 88.7856 175.473 88.0596 176.076C87.3364 176.679 86.4441 176.981 85.38 176.981C84.0167 176.981 82.8833 176.512 81.9717 175.573L83.1494 174.046C83.2353 174.126 83.3516 174.225 83.4957 174.341C83.6398 174.457 83.9031 174.611 84.2855 174.803C84.6706 174.995 85.053 175.091 85.4354 175.091C85.8206 175.091 86.1615 174.984 86.458 174.769C86.7545 174.555 86.9041 174.238 86.9041 173.818C86.9041 173.398 86.7434 173.074 86.4219 172.846C86.1005 172.618 85.6848 172.504 85.1777 172.504C84.6706 172.504 84.0804 172.674 83.4098 173.014L82.4732 172.075V167.505H88.5418Z" fill="#673AB7"/>
<path fill-rule="evenodd" clip-rule="evenodd" d="M93.0608 169.236C93.3871 168.824 93.8461 168.618 94.4431 168.618C94.7376 168.618 95.0401 168.694 95.3531 168.845C95.6636 168.997 95.8732 169.12 95.9793 169.214C96.0854 169.309 96.165 169.385 96.2207 169.442L97.2395 167.88C96.9716 167.662 96.7301 167.482 96.5099 167.34C96.2897 167.198 95.974 167.059 95.5654 166.921C95.1568 166.784 94.7296 166.715 94.2786 166.715C93.1961 166.715 92.2861 167.113 91.5538 167.908C91.1771 168.306 90.8799 168.848 90.665 169.534C90.4501 170.22 90.3413 171.018 90.3413 171.926C90.3413 173.337 90.6172 174.51 91.1664 175.447C91.4424 175.93 91.8297 176.307 92.3312 176.576C92.83 176.846 93.419 176.981 94.1008 176.981C95.0825 176.981 95.897 176.678 96.5444 176.072C97.1918 175.466 97.5155 174.659 97.5155 173.651C97.5155 172.643 97.213 171.836 96.6134 171.231C96.0111 170.625 95.2603 170.322 94.3609 170.322C93.6923 170.322 93.0582 170.521 92.4612 170.918C92.5355 170.208 92.7345 169.648 93.0608 169.236ZM93.0873 172.586C93.3765 172.326 93.7347 172.196 94.1619 172.196C94.589 172.196 94.926 172.34 95.1727 172.629C95.4221 172.918 95.5442 173.273 95.5442 173.694C95.5442 174.115 95.4089 174.459 95.1329 174.723C94.857 174.988 94.5121 175.121 94.1008 175.121C93.6869 175.121 93.342 174.972 93.0661 174.674C92.7928 174.375 92.6549 174.018 92.6549 173.602C92.6549 173.185 92.7981 172.847 93.0873 172.586Z" fill="#673AB7"/>
<path fill-rule="evenodd" clip-rule="evenodd" d="M101.829 169.236C102.156 168.824 102.617 168.618 103.214 168.618C103.509 168.618 103.811 168.694 104.122 168.845C104.435 168.997 104.644 169.12 104.748 169.214C104.854 169.309 104.936 169.385 104.989 169.442L106.008 167.88C105.743 167.662 105.499 167.482 105.278 167.34C105.058 167.198 104.745 167.059 104.337 166.921C103.928 166.784 103.498 166.715 103.05 166.715C101.965 166.715 101.057 167.113 100.322 167.908C99.9456 168.306 99.6511 168.848 99.4335 169.534C99.2186 170.22 99.1099 171.018 99.1099 171.926C99.1099 173.337 99.3858 174.51 99.9377 175.447C100.214 175.93 100.601 176.307 101.1 176.576C101.601 176.846 102.19 176.981 102.869 176.981C103.851 176.981 104.666 176.678 105.313 176.072C105.96 175.466 106.284 174.659 106.284 173.651C106.284 172.643 105.984 171.836 105.382 171.231C104.782 170.625 104.031 170.322 103.132 170.322C102.461 170.322 101.827 170.521 101.232 170.918C101.304 170.208 101.503 169.648 101.829 169.236ZM101.859 172.586C102.148 172.326 102.506 172.196 102.933 172.196C103.358 172.196 103.697 172.34 103.944 172.629C104.191 172.918 104.315 173.273 104.315 173.694C104.315 174.115 104.177 174.459 103.901 174.723C103.628 174.988 103.283 175.121 102.869 175.121C102.456 175.121 102.113 174.972 101.837 174.674C101.561 174.375 101.423 174.018 101.423 173.602C101.423 173.185 101.569 172.847 101.859 172.586Z" fill="#673AB7"/>
<path d="M111.033 172.887V171.233H113.144V172.887H114.255V174.717H113.144V176.981H111.033V174.717H107.081V173.104L110.583 167.505H112.973L109.64 172.887H111.033Z" fill="#673AB7"/>
<path d="M86.2988 186.851V184.944H84.3633V184H86.2988V182.113H87.2105V184H89.1461V184.944H87.2105V186.851H86.2988Z" fill="#D1C4E9"/>
<path d="M89.9429 181.324H92.3343V188.43H91.2793V182.391H89.9429V181.324Z" fill="#D1C4E9"/>
<path d="M94.7256 188.366C94.7256 188.159 94.8036 187.987 94.9622 187.849C95.1181 187.71 95.3036 187.641 95.5187 187.641C95.7311 187.641 95.9193 187.71 96.0779 187.849C96.2392 187.987 96.3198 188.153 96.3198 188.347C96.3198 188.54 96.2231 188.775 96.0295 189.052L95.3896 190.01H94.7686L95.1638 189.004C94.8735 188.882 94.7256 188.669 94.7256 188.366" fill="#D1C4E9"/>
<path d="M100.802 184.522C101.032 184.221 101.148 183.915 101.148 183.607C101.148 183.298 101.024 183.035 100.778 182.818C100.536 182.601 100.225 182.493 99.8494 182.493C99.1916 182.493 98.6463 182.816 98.2078 183.463L97.1172 182.857C97.4692 182.35 97.8587 181.967 98.2828 181.71C98.7098 181.453 99.2551 181.324 99.9244 181.324C100.594 181.324 101.182 181.528 101.687 181.936C102.192 182.344 102.443 182.901 102.443 183.607C102.443 184.004 102.336 184.383 102.123 184.743C101.909 185.103 101.514 185.566 100.94 186.132L99.0589 187.974H102.697V189.22H97.2095V188.117L99.6446 185.768C100.187 185.239 100.574 184.824 100.802 184.522Z" fill="#D1C4E9"/>
<path fill-rule="evenodd" clip-rule="evenodd" d="M110.225 186.248C110.521 186.586 110.668 186.995 110.668 187.475C110.668 187.955 110.519 188.366 110.219 188.708C109.923 189.049 109.554 189.22 109.113 189.22C108.672 189.22 108.303 189.051 108.009 188.713C107.715 188.375 107.567 187.966 107.567 187.486C107.567 187.006 107.717 186.595 108.014 186.254C108.313 185.912 108.682 185.741 109.123 185.741C109.564 185.741 109.931 185.91 110.225 186.248ZM109.559 188.07C109.667 187.921 109.724 187.737 109.724 187.519C109.724 187.301 109.665 187.117 109.549 186.968C109.433 186.819 109.291 186.744 109.123 186.744C108.955 186.744 108.816 186.819 108.708 186.968C108.597 187.117 108.543 187.301 108.543 187.519C108.543 187.737 108.602 187.921 108.718 188.07C108.834 188.219 108.976 188.293 109.144 188.293C109.311 188.293 109.448 188.219 109.559 188.07ZM105.628 183.08C105.628 183.298 105.573 183.482 105.465 183.631C105.354 183.78 105.215 183.854 105.047 183.854C104.879 183.854 104.738 183.78 104.621 183.631C104.505 183.482 104.449 183.298 104.449 183.08C104.449 182.862 104.503 182.678 104.611 182.529C104.722 182.38 104.861 182.306 105.026 182.306C105.194 182.306 105.339 182.38 105.455 182.529C105.571 182.678 105.628 182.862 105.628 183.08ZM110.328 181.509L105.073 189.133H103.75L109.004 181.509H110.328ZM106.592 183.058C106.592 182.578 106.445 182.169 106.151 181.831C105.857 181.493 105.491 181.324 105.047 181.324C104.606 181.324 104.237 181.495 103.94 181.836C103.641 182.178 103.494 182.589 103.494 183.069C103.494 183.549 103.641 183.958 103.935 184.296C104.229 184.634 104.596 184.803 105.039 184.803C105.481 184.803 105.849 184.632 106.146 184.29C106.443 183.949 106.592 183.538 106.592 183.058Z" fill="#D1C4E9"/>
<path d="M77.19 182.903L73.6016 187.641H80.7757L77.19 182.903Z" fill="#E91E63"/>
<mask id="mask3_1_5581" style="mask-type:luminance" maskUnits="userSpaceOnUse" x="416" y="368" width="67" height="8">
<path fill-rule="evenodd" clip-rule="evenodd" d="M416.441 372.194C416.441 370.423 431.28 368.991 449.583 368.991C467.886 368.991 482.721 370.423 482.721 372.194C482.721 373.961 467.886 375.396 449.583 375.396C431.28 375.396 416.441 373.961 416.441 372.194Z" fill="white"/>
</mask>
<g mask="url(#mask3_1_5581)">
<path d="M416.441 372.194C416.441 370.424 431.279 368.991 449.583 368.991C467.883 368.991 482.721 370.424 482.721 372.194C482.721 373.961 467.883 375.396 449.583 375.396C431.279 375.396 416.441 373.961 416.441 372.194Z" fill="#00BCD4"/>
</g>
<path d="M447.35 366.577C447.324 366.38 447.324 366.306 447.313 366.06C446.812 356.714 450.072 338.114 446.303 328.642C445.118 327.818 441.465 328.224 441.465 328.224C439.619 338.835 443.606 356.43 444.246 366.281L447.35 366.577" fill="#FFD8D8"/>
<path d="M445.849 371.414C446.366 371.389 447.036 371.904 447.146 372.474C447.867 372.439 448.062 372.431 448.086 372.431C448.086 372.431 448.936 370.913 448.356 369.04C447.988 367.861 447.679 368.162 447.365 368.486C446.644 369.094 443.601 369.421 443.311 368.46C442.527 368.606 434.516 371.174 434.551 371.882C434.606 373.033 435.562 372.988 436.212 372.958C443.89 372.617 442.856 372.215 445.849 371.414Z" fill="#311B92"/>
<path d="M444.571 366.887C444.783 365.711 447.724 365.062 447.931 367.192C447.974 367.661 448.006 367.979 448.182 368.349H448.178C447.411 369.429 440.562 371.508 439.342 370.052C440.124 369.577 444.779 368.335 444.571 366.887Z" fill="#FFD8D8"/>
<path d="M462.978 367.383C462.938 367.186 462.938 367.114 462.914 366.866C462.062 357.504 464.879 338.688 460.559 329.365C459.262 328.582 455.371 329.101 455.371 329.101C453.756 339.817 458.661 357.518 459.679 367.383H462.978Z" fill="#FFD8D8"/>
<path d="M461.12 371.411C461.639 371.387 462.31 371.901 462.422 372.471C463.146 372.436 463.334 372.428 463.362 372.428C463.362 372.428 464.214 370.911 463.632 369.039C463.266 367.86 462.953 368.161 462.639 368.486C461.916 369.092 458.866 369.42 458.577 368.459C457.793 368.605 449.769 371.171 449.805 371.88C449.862 373.029 450.818 372.984 451.469 372.955C459.164 372.615 458.119 372.212 461.12 371.411Z" fill="#311B92"/>
<path d="M459.445 366.915C459.653 365.737 462.593 365.088 462.797 367.22C462.845 367.689 462.873 368.008 463.049 368.378H463.045C462.277 369.46 455.441 371.54 454.217 370.083C455.001 369.607 459.649 368.364 459.445 366.915Z" fill="#FFD8D8"/>
<path d="M461.269 260.527C459.77 259.822 454.478 256.931 454.478 256.931L445.659 253.987C444.493 253.268 441.576 253.373 439.294 252.02C437.18 250.767 432.805 248.295 430.888 246.78C430.169 247.593 428.594 249.377 427.32 250.862C430.442 253.921 439.105 261.38 439.539 262.545C440.033 263.863 438.486 271.023 438.486 271.023C439.001 272.78 440.242 274.109 440.383 274.988C440.523 275.866 440.644 282.786 439.346 286.406C436.549 294.214 434.777 313.719 437.036 329.94C440.998 331.171 459.465 330.264 463.491 328.132C461.643 305.667 456.315 292.246 454.43 285.85C454.868 280.478 459.236 269.969 459.236 269.969C459.236 269.969 463.487 279.12 464.399 282.134C465.343 281.974 468.57 281.362 469.84 280.26C467.875 273.908 462.643 261.269 461.269 260.527Z" fill="url(#paint10_linear_1_5581)"/>
<path d="M469.883 280.073C468.609 281.163 465.364 281.769 464.414 281.927C464.503 282.221 464.559 282.449 464.567 282.587C461.271 285.103 456.21 291.786 452.63 294.667C452.63 294.667 453.391 296.174 454.058 296.448C454.058 296.448 468.042 286.936 470.591 283.547C470.805 283.263 470.465 281.923 469.883 280.073Z" fill="#FFD8D8"/>
<path d="M454.386 256.67C454.776 257.859 448.9 256.728 447.35 255.907C445.8 255.086 444.298 253.502 445.282 253.632C445.824 253.704 446.796 253.889 447.322 253.537C447.979 253.103 448.155 252.037 448.374 251.14C446.095 250.918 445.601 249.562 446.521 246.474C445.88 246.316 445.589 245.919 445.589 245.919C445.697 245.49 446.76 244.714 447.003 243.733C447.242 242.753 447.402 241.849 448.099 240.331C448.796 238.814 451.33 236.71 454.979 237.951C459.254 239.405 459.549 242.728 458.485 246.471C457.306 250.626 451.9 249.137 454.386 256.67Z" fill="#FFD8D8"/>
<path d="M450.457 245.516C454.227 247.56 452.808 249.696 451.495 250.931C449.246 253.044 448.569 257.955 450.802 260.643C453.797 264.249 459.399 265.301 463.083 263.619C468.344 261.216 463.735 258.597 459.597 257.201C457.729 256.57 458.029 252.737 459.196 250.42C460.197 248.427 461.016 246.03 461.052 244.087C461.117 240.032 458.997 237.116 455.435 236.258C451.876 235.399 449.533 236.514 447.839 239.367C446.87 240.989 447.316 243.813 450.457 245.516Z" fill="black"/>
<path d="M453.247 294.963C452.906 295.284 451.733 295.424 451.194 295.274C450.458 295.071 448.96 294.674 448.843 295.031C448.75 295.321 451.136 295.798 450.714 296.453C450.296 297.108 445.222 296.859 445.412 297.296C445.606 297.73 449.8 299.02 450.729 298.849C451.942 298.626 453.471 297.574 454.974 296.313C454.726 295.206 453.247 294.963 453.247 294.963Z" fill="#FFD8D8"/>
<path d="M427.885 250.764C427.485 250.36 427.176 250.029 426.992 249.802C425.419 247.851 419.094 230.745 418.451 228.387C418.455 228.388 418.462 228.388 418.462 228.388C418.642 228.388 420.528 227.975 420.528 227.975C422.152 230.912 428.337 242.798 430.502 245.765V247.667C429.734 248.563 428.742 249.735 427.885 250.764" fill="#FFF2EF"/>
<path d="M427.089 284.025H407.621V209.129H427.089C428.971 209.129 430.502 210.645 430.502 212.509V245.722C428.298 242.783 421.999 231.007 420.345 228.098C420.203 227.652 420.529 226.297 421.524 225.383C422.332 224.64 422.291 224.384 421.992 224.384C421.891 224.384 421.767 224.411 421.633 224.459C421.075 224.657 420.888 224.934 420.379 225.365C419.982 225.704 419.937 225.9 419.571 225.91C418.979 225.15 418.437 224.474 418.19 224.211C417.931 223.935 417.647 223.701 417.493 223.701C417.34 223.701 417.325 223.936 417.598 224.598C417.119 224.131 416.715 223.749 416.506 223.577C416.229 223.348 415.929 223.161 415.772 223.161C415.592 223.161 415.596 223.407 416.015 224.114C415.372 223.713 414.818 223.38 414.552 223.245C414.268 223.101 413.976 222.991 413.807 222.991C413.527 222.991 413.579 223.288 414.526 224.213C413.871 223.992 413.328 223.818 413.074 223.758C412.849 223.704 412.621 223.669 412.453 223.669C411.94 223.669 411.932 223.989 413.957 225.088C416.442 226.434 417.647 227.648 418.231 228.505C418.886 230.841 425.326 247.789 426.928 249.722C427.115 249.947 427.43 250.274 427.837 250.675C428.709 249.655 429.72 248.494 430.502 247.606C429.72 248.494 428.709 249.655 427.837 250.675C428.515 251.338 429.447 252.208 430.502 253.176V280.644C430.502 282.509 428.971 284.025 427.089 284.025" fill="white"/>
<path d="M418.26 228.72C418.256 228.72 418.252 228.72 418.249 228.719C417.687 227.854 416.536 226.63 414.158 225.272C412.223 224.165 412.226 223.842 412.717 223.842C412.88 223.842 413.099 223.877 413.314 223.931C413.558 223.992 414.077 224.167 414.702 224.39C413.798 223.457 413.749 223.158 414.014 223.158C414.176 223.158 414.455 223.269 414.727 223.414C414.981 223.55 415.511 223.886 416.126 224.29C415.727 223.577 415.723 223.33 415.893 223.33C416.045 223.33 416.331 223.518 416.596 223.748C416.797 223.922 417.182 224.307 417.641 224.778C417.38 224.111 417.394 223.874 417.542 223.874C417.687 223.874 417.959 224.11 418.207 224.388C418.443 224.653 418.962 225.335 419.528 226.102C419.881 226.092 419.923 225.893 420.301 225.552C420.789 225.117 420.969 224.838 421.502 224.638C421.629 224.59 421.75 224.562 421.845 224.562C422.131 224.562 422.17 224.821 421.396 225.57C420.446 226.492 420.135 227.857 420.269 228.308C420.269 228.308 418.433 228.72 418.26 228.72" fill="#FFF2EF"/>
<path d="M430.857 246.34C429.245 244.888 421.655 230.691 420.065 227.947C419.187 228.393 418.407 228.027 418.057 228.552C418.713 230.891 425.184 247.861 426.797 249.797C426.981 250.022 427.301 250.35 427.712 250.751C428.978 249.27 430.552 247.492 431.268 246.681C431.117 246.562 430.974 246.446 430.857 246.34Z" fill="#FFD8D8"/>
<path d="M421.529 224.637C420.993 224.838 420.812 225.119 420.323 225.557C419.944 225.9 419.901 226.1 419.547 226.11C418.979 225.338 418.462 224.653 418.224 224.386C417.724 223.825 417.129 223.436 417.657 224.778C417.196 224.305 416.81 223.917 416.604 223.742C416.033 223.245 415.381 222.943 416.136 224.288C415.519 223.88 414.987 223.543 414.732 223.406C414.005 223.018 413.243 222.879 414.707 224.388C414.08 224.163 413.559 223.987 413.314 223.926C412.438 223.707 411.577 223.793 414.161 225.275C416.544 226.642 417.7 227.874 418.263 228.744C418.359 228.765 420.291 228.329 420.291 228.329C420.157 227.877 420.469 226.503 421.422 225.575C422.454 224.573 422.043 224.443 421.529 224.637Z" fill="#FFD8D8"/>
<mask id="mask4_1_5581" style="mask-type:luminance" maskUnits="userSpaceOnUse" x="119" y="349" width="77" height="8">
<path fill-rule="evenodd" clip-rule="evenodd" d="M119.752 353.234C119.752 351.336 136.762 349.796 157.743 349.796C178.723 349.796 195.731 351.336 195.731 353.234C195.731 355.129 178.723 356.669 157.743 356.669C136.762 356.669 119.752 355.129 119.752 353.234Z" fill="white"/>
</mask>
<g mask="url(#mask4_1_5581)">
<path d="M119.752 353.234C119.752 351.336 136.762 349.796 157.743 349.796C178.723 349.796 195.731 351.336 195.731 353.234C195.731 355.129 178.723 356.669 157.743 356.669C136.762 356.669 119.752 355.129 119.752 353.234Z" fill="url(#paint11_linear_1_5581)"/>
</g>
<path d="M89.5517 321.029C89.8169 321.109 89.8894 321.945 89.7138 322.893C89.5383 323.844 89.1811 324.548 88.916 324.468C88.6509 324.385 88.5786 323.551 88.7539 322.6C88.9294 321.652 89.2866 320.948 89.5517 321.029Z" fill="white"/>
<path d="M85.6849 323.324C85.9984 323.305 86.2949 323.804 86.3476 324.439C86.3999 325.074 86.1883 325.607 85.8743 325.624C85.5611 325.646 85.2651 325.147 85.2119 324.512C85.1601 323.877 85.3711 323.343 85.6849 323.324Z" fill="white"/>
<path d="M82.0797 324.482C82.3676 324.429 82.7099 324.641 82.846 324.954C82.9818 325.267 82.8597 325.565 82.5713 325.616C82.2839 325.67 81.9421 325.46 81.8047 325.147C81.6702 324.833 81.7918 324.536 82.0797 324.482Z" fill="white"/>
<path d="M412.765 314.08C412.669 314.08 412.576 314.054 412.487 314.003L406.76 310.725C406.474 310.559 406.362 310.174 406.517 309.865C406.663 309.553 407.022 309.432 407.308 309.598L413.035 312.88C413.325 313.042 413.433 313.427 413.282 313.739C413.178 313.955 412.974 314.08 412.765 314.08Z" fill="#CED3F8"/>
<path d="M161.742 122.541H162.286C162.286 119.82 163.388 117.364 165.171 115.579C166.954 113.797 169.415 112.698 172.137 112.698C174.856 112.698 177.317 113.797 179.1 115.579C180.883 117.364 181.985 119.82 181.985 122.541C181.985 125.261 180.883 127.718 179.1 129.503C177.317 131.284 174.856 132.383 172.137 132.383C169.415 132.383 166.954 131.284 165.171 129.503C163.388 127.718 162.286 125.261 162.286 122.541H161.742H161.197C161.197 128.578 166.094 133.472 172.137 133.472C178.177 133.472 183.074 128.578 183.074 122.541C183.074 116.504 178.177 111.61 172.137 111.61C166.094 111.61 161.197 116.504 161.197 122.541H161.742Z" fill="#F48FB1"/>
<path d="M170.409 119.664H172.712V126.568H171.696V120.699H170.409V119.664Z" fill="#F48FB1"/>
<path d="M464.598 170.868H465.167C465.171 168.488 466.135 166.338 467.699 164.777C469.26 163.217 471.417 162.254 473.8 162.254C476.183 162.254 478.34 163.217 479.901 164.777C481.466 166.338 482.429 168.488 482.429 170.868C482.429 173.248 481.466 175.398 479.901 176.959C478.34 178.518 476.183 179.481 473.8 179.482C471.417 179.481 469.26 178.518 467.699 176.959C466.135 175.398 465.171 173.248 465.167 170.868H464.598H464.026C464.026 176.257 468.401 180.626 473.8 180.626C479.199 180.626 483.574 176.257 483.574 170.868C483.574 165.479 479.199 161.111 473.8 161.11C468.401 161.111 464.026 165.479 464.026 170.868H464.598Z" fill="#D1C4E9"/>
<path d="M475.33 170.694C475.857 170.285 476.219 169.636 476.273 168.895V168.895V168.864C476.277 168.811 476.281 168.194 476.281 168.14C476.281 166.791 475.264 165.697 474.017 165.697C472.766 165.698 471.757 166.792 471.757 168.141V168.896L471.765 168.895C471.815 169.638 472.177 170.286 472.704 170.695C471.854 170.758 468.87 171.907 469.536 174.808C470.456 174.808 474.017 174.808 474.017 174.808C474.017 174.808 477.578 174.808 478.498 174.808C479.018 171.828 476.177 170.754 475.33 170.694Z" fill="#D1C4E9"/>
<path d="M197.003 142.677C196.808 142.677 196.613 142.607 196.463 142.473L193.659 139.91C193.362 139.639 193.362 139.199 193.659 138.928C193.956 138.657 194.437 138.657 194.734 138.928L197.003 140.998L202.502 135.976C202.798 135.705 203.28 135.705 203.577 135.976C203.873 136.247 203.873 136.687 203.577 136.958L197.54 142.473C197.391 142.607 197.196 142.677 197.003 142.677Z" fill="white"/>
<path d="M197.003 155.333C196.808 155.333 196.613 155.266 196.463 155.129L193.659 152.568C193.362 152.297 193.362 151.857 193.659 151.586C193.956 151.315 194.437 151.315 194.734 151.586L197.003 153.656L202.502 148.633C202.798 148.362 203.28 148.362 203.577 148.633C203.873 148.904 203.873 149.344 203.577 149.615L197.54 155.129C197.391 155.266 197.196 155.333 197.003 155.333Z" fill="white"/>
<path d="M307.714 120.811H285.253C284.784 120.811 284.404 120.556 284.404 120.242C284.404 119.927 284.784 119.673 285.253 119.673H307.714C308.18 119.673 308.564 119.927 308.564 120.242C308.564 120.556 308.18 120.811 307.714 120.811Z" fill="#131147"/>
<path d="M292.081 327.352H292.835C292.835 326.025 293.372 324.828 294.244 323.958C295.117 323.087 296.316 322.552 297.65 322.552C298.979 322.552 300.178 323.087 301.05 323.958C301.925 324.828 302.462 326.025 302.462 327.352C302.462 328.68 301.925 329.874 301.053 330.747C300.178 331.615 298.979 332.152 297.65 332.152C296.316 332.152 295.117 331.615 294.244 330.747C293.372 329.874 292.835 328.68 292.835 327.352H292.081H291.325C291.323 329.091 292.033 330.672 293.178 331.811C294.317 332.95 295.905 333.657 297.65 333.657C299.392 333.657 300.977 332.95 302.119 331.811C303.262 330.672 303.972 329.091 303.972 327.352C303.972 325.613 303.262 324.033 302.119 322.894C300.977 321.752 299.392 321.045 297.65 321.047C295.905 321.045 294.317 321.752 293.178 322.894C292.033 324.033 291.323 325.613 291.325 327.352H292.081Z" fill="#D1C4E9"/>
<path d="M270.581 310.654L278.629 302.612L280.944 304.926L272.896 312.968L270.581 310.654Z" fill="url(#paint12_linear_1_5581)"/>
<path d="M290.155 310.655L298.202 302.612L300.517 304.926L292.47 312.968L290.155 310.655Z" fill="url(#paint13_linear_1_5581)"/>
<path d="M308.578 310.655L316.624 302.612L318.94 304.926L310.894 312.968L308.578 310.655Z" fill="url(#paint14_linear_1_5581)"/>
<path d="M267.134 296.865C267.134 295.602 268.159 294.58 269.42 294.58C270.683 294.58 271.708 295.602 271.708 296.865C271.708 298.126 270.683 299.15 269.42 299.15C268.159 299.15 267.134 298.126 267.134 296.865Z" fill="white"/>
<path d="M338.528 147.273C338.528 146.014 339.559 144.993 340.825 144.993C342.095 144.993 343.12 146.014 343.12 147.273C343.12 148.532 342.095 149.552 340.825 149.552C339.559 149.552 338.528 148.532 338.528 147.273Z" fill="white"/>
<path d="M90.5551 352.196C92.2033 352.682 93.5263 353.57 94.4276 353.226C94.9072 353.57 101.955 356.085 102.671 356.571C103.405 357.069 103.297 357.842 102.52 357.842C101.384 357.842 92.0269 357.432 92.0269 357.432C91.8395 357.637 91.6852 357.842 91.6852 357.842H89.5464C88.9097 356.743 89.0806 353.456 90.5551 352.196Z" fill="#311B92"/>
<path d="M56.6269 352.196C58.2751 352.682 59.5981 353.57 60.4994 353.226C60.979 353.57 68.0266 356.085 68.7432 356.571C69.4764 357.069 69.3689 357.842 68.5916 357.842C67.4561 357.842 58.0987 357.432 58.0987 357.432C57.9113 357.637 57.757 357.842 57.757 357.842H55.6181C54.9814 356.746 55.1523 353.456 56.6269 352.196Z" fill="#311B92"/>
<path d="M63.2178 279.278C60.7153 285.209 61.492 290.293 61.8831 294.614C61.0243 299.785 56.0659 350.541 56.0659 350.541C57.3185 350.541 60.9095 350.583 60.9095 350.583C60.9095 350.583 72.1281 318.995 73.6296 313.905C75.2378 308.446 81.5336 286.966 81.1999 278.39C76.3181 278.848 63.2178 279.278 63.2178 279.278Z" fill="#311B92"/>
<path d="M85.3504 278.39C87.521 283.519 99.697 312.129 99.9649 315.203C100.233 318.277 93.9233 350.583 93.9233 350.583H90.2191C88.2153 336.59 88.2837 318.216 89.5494 315.056C84.5658 309.085 73.3357 297.406 71.1597 294.454C67.748 289.825 67.2258 284.41 67.8929 279.679C71.2335 278.848 85.3504 278.39 85.3504 278.39Z" fill="#311B92"/>
<path d="M89.9941 351.872C89.9941 351.16 89.9941 350.583 89.9941 350.583H93.5766C93.622 351.782 93.8493 352.427 93.9857 352.923C93.0567 353.275 91.693 352.368 89.9941 351.872Z" fill="#FFD3C9"/>
<path d="M56.0659 351.872C56.2943 351.196 56.4698 350.583 56.4698 350.583L60.0575 350.616C59.8931 351.512 59.8458 352.427 59.9795 352.923C59.0686 353.275 57.7316 352.368 56.0659 351.872Z" fill="#FFD3C9"/>
<path d="M107.17 206.944C107.344 205.995 106.617 205.28 106.549 203.461C106.332 202.986 105.262 201.899 105.642 201.611C105.782 201.504 106.837 202.077 107.172 202.637C107.505 203.196 107.688 203.757 108.089 203.883C108.896 204.135 111.155 202.164 112.429 201.611C113.944 200.954 115.141 201.784 115.141 201.784C115.141 202.402 111.052 205.658 110.666 206.533C110.354 207.241 110.32 207.811 110.32 207.811L107.17 206.944Z" fill="#FFF3E0"/>
<path d="M80.3598 207.043C80.1827 206.095 80.957 205.28 81.0231 203.461C81.2425 202.986 82.3102 201.899 81.9296 201.611C81.7895 201.504 80.735 202.077 80.402 202.637C80.0664 203.196 79.8867 203.757 79.4823 203.883C78.6762 204.135 76.4166 202.164 75.1427 201.611C73.631 200.954 72.4312 201.784 72.4312 201.784C72.4312 202.402 76.5197 205.658 76.9055 206.533C77.22 207.241 77.2544 207.811 77.2544 207.811L80.3598 207.043Z" fill="#FFF3E0"/>
<path d="M71.1477 223.906C73.6821 217.901 76.8158 207.408 76.8158 207.408L81.2125 207.6C80.7616 212.234 79.7786 222.642 78.3588 226.867C77.3311 229.921 72.1867 239.002 72.1867 239.002L63.2505 240.883C64.5415 233.791 69.4618 227.897 71.1477 223.906Z" fill="url(#paint15_linear_1_5581)"/>
<path d="M106.643 206.198C106.643 206.198 101.926 225.527 100.504 226.926C98.7287 228.674 89.6477 232.228 83.9114 233.291C82.0897 233.515 79.3202 233.855 78.2765 233.974C77.3972 234.074 71.9349 234.849 70.5241 235.381C69.2667 235.855 65.9904 236.665 63.199 240.079C62.2457 249.636 62.1334 276.61 63.2812 279.33C64.4317 282.049 80.7748 280.492 85.8756 278.871C87.8726 271.65 88.867 255.942 89.2861 245.747C89.2861 245.747 105.037 233.795 106.221 232.089C107.404 230.384 111.149 207.436 111.149 207.436L106.643 206.198Z" fill="url(#paint16_linear_1_5581)"/>
<path d="M67.9293 229.199C68.5476 230.359 69.9903 233.735 69.7785 235.909C71.1554 236.295 74.8195 235.85 77.8796 234.518C76.9464 233.651 75.787 232.862 75.8672 231.675C75.9874 229.829 78.5008 231.325 78.7784 228.434C79.1019 225.063 77.3729 219.256 75.3691 218.18C73.1249 216.975 69.1659 215.935 65.8453 219.845C63.1316 223.036 66.6755 226.841 67.9293 229.199Z" fill="#FFF3E0"/>
<path d="M75.514 223.094C76.4635 222.764 75.632 221.149 75.3763 220.222C75.1937 219.567 75.7162 218.928 76.4551 218.738C79.2138 218.032 79.6043 214.02 77.3737 213.213C75.1431 212.407 74.3285 214.936 72.907 214.979C71.2495 215.029 70.845 213.15 68.7211 214.137C66.7603 215.048 68.3728 216.58 67.2098 217.381C66.0074 218.206 63.4088 217.174 62.5548 219.825C61.9199 221.792 64.4201 222.63 64.8612 224.401C65.1337 225.506 65.3107 230.385 68.6088 230.396C71.9968 230.409 73.8846 226.917 72.7721 223.923C72.3226 222.71 72.3957 221.68 73.0278 221.533C73.9717 221.315 74.1599 223.569 75.514 223.094Z" fill="#131147"/>
<path d="M370.026 96.6267C367.893 96.6267 366.163 94.9352 366.163 92.848V75.9642C366.163 73.8773 367.893 72.1859 370.026 72.1855L407.171 72.1844C409.308 72.1844 411.038 73.8758 411.038 75.9631V92.8484C411.038 94.9352 409.308 96.6267 407.171 96.6267L370.026 96.6267Z" fill="url(#paint17_linear_1_5581)"/>
<path d="M366.979 73.1498L388.192 87.8193L409.404 73.1482C408.725 72.5635 407.841 72.208 406.877 72.208L388.99 72.2084L369.507 72.2092C368.542 72.2096 367.659 72.5651 366.979 73.1498" fill="#D1C4E9"/>
<path d="M388.786 87.8264C388.677 87.8264 388.569 87.7948 388.476 87.7312L373.331 77.5842C373.077 77.4155 373.013 77.0796 373.189 76.8343C373.361 76.5897 373.708 76.5268 373.959 76.6962L388.786 86.632L403.617 76.6962C403.867 76.5268 404.211 76.5893 404.387 76.8343C404.559 77.0793 404.499 77.4155 404.245 77.5842L389.103 87.7312C389.01 87.7948 388.898 87.8264 388.786 87.8264Z" fill="#BBC0E6"/>
<path d="M403.922 92.6143C403.812 92.6143 403.698 92.5819 403.604 92.5146L392.528 84.8599C392.27 84.683 392.21 84.3315 392.384 84.0744C392.562 83.818 392.911 83.7526 393.165 83.9302L404.241 91.5849C404.498 91.7614 404.559 92.1133 404.385 92.37C404.275 92.529 404.1 92.6143 403.922 92.6143" fill="#BBC0E6"/>
<path d="M372.856 92.6353C372.675 92.6353 372.503 92.55 372.392 92.3904C372.212 92.1331 372.278 91.7804 372.536 91.6036L383.631 83.9286C383.885 83.751 384.238 83.8167 384.415 84.0734C384.591 84.3307 384.525 84.6837 384.271 84.8606L373.176 92.5356C373.076 92.6031 372.966 92.6353 372.856 92.6353" fill="#BBC0E6"/>
<path d="M470.939 135.804V144.977L477.834 140.391L470.939 135.804Z" fill="url(#paint18_linear_1_5581)"/>
<path d="M382.271 384.643L386.539 376.279L394.933 380.535L390.661 388.899L382.271 384.643" fill="url(#paint19_linear_1_5581)"/>
<path d="M263.261 234.965L261.263 229.352L258.154 234.965L252.158 235.666L255.933 240.11L254.157 246.19L259.708 243.15L264.594 246.19L264.15 240.11L268.813 235.666L263.261 234.965Z" fill="url(#paint20_linear_1_5581)"/>
<path d="M282.866 234.965L281.09 229.352L277.759 234.965L271.985 235.666L275.538 240.11L273.984 246.19L279.313 243.15L284.199 246.19L283.977 240.11L288.64 235.666L282.866 234.965Z" fill="url(#paint21_linear_1_5581)"/>
<path d="M302.519 234.965L300.521 229.352L297.19 234.965L291.416 235.666L294.969 240.11L293.415 246.19L298.966 243.15L303.63 246.19L303.407 240.11L308.071 235.666L302.519 234.965Z" fill="url(#paint22_linear_1_5581)"/>
<path d="M322.346 234.965L320.348 229.352L317.239 234.965L311.243 235.666L315.018 240.11L313.242 246.19L318.793 243.15L323.679 246.19L323.235 240.11L327.898 235.666L322.346 234.965Z" fill="url(#paint23_linear_1_5581)"/>
<path d="M341.892 234.965L339.873 229.352L336.732 234.965L330.674 235.666L334.488 240.11L332.693 246.19L338.302 243.15L343.238 246.19L343.014 240.11L347.725 235.666L341.892 234.965Z" fill="url(#paint24_linear_1_5581)"/>
<path d="M297.769 131.17C273.786 131.17 253.012 150.687 251.323 174.786C249.634 198.885 267.706 218.401 291.689 218.401C315.672 218.401 336.446 198.885 338.135 174.786C339.992 150.687 321.921 131.17 297.769 131.17Z" fill="url(#paint25_linear_1_5581)"/>
<mask id="mask5_1_5581" style="mask-type:luminance" maskUnits="userSpaceOnUse" x="251" y="131" width="88" height="88">
<path d="M297.769 131.17C273.786 131.17 253.012 150.687 251.323 174.786C249.634 198.885 267.706 218.401 291.689 218.401C315.672 218.401 336.446 198.885 338.135 174.786C339.992 150.687 321.921 131.17 297.769 131.17Z" fill="white"/>
</mask>
<g mask="url(#mask5_1_5581)">
<path d="M249.465 232.657L257.403 237.409C261.963 232.827 283.582 200.582 283.582 200.582L274.123 195.321C267.874 203.467 251.998 228.245 249.465 232.657Z" fill="#FFF3E0"/>
<path d="M273.279 196.848C271.759 200.242 270.746 198.206 268.719 202.958C267.874 204.825 268.381 210.255 267.874 211.952C265.848 219.589 259.936 227.566 256.727 231.978C256.052 232.827 255.376 233.506 254.532 233.845L257.403 237.239C261.963 232.657 283.582 200.412 283.582 200.412L279.021 197.866C278.853 198.206 273.448 196.678 273.279 196.848Z" fill="#FFF3E0"/>
<path d="M302.329 136.771C297.769 136.771 293.715 140.504 293.546 145.256C293.377 149.838 296.924 153.742 301.484 153.742C306.045 153.742 310.098 150.008 310.267 145.256C310.605 140.674 307.058 136.771 302.329 136.771Z" fill="black"/>
<path d="M302.329 136.771C301.315 136.771 300.471 136.94 299.627 137.28C300.133 137.28 300.471 137.11 300.978 137.11C309.591 137.11 308.916 150.517 300.302 150.517C294.729 150.517 293.04 144.917 294.897 141.014C294.222 142.201 293.715 143.559 293.546 145.087C293.377 149.669 296.924 153.572 301.484 153.572C306.045 153.572 310.098 149.838 310.267 145.087C310.605 140.674 307.058 136.771 302.329 136.771Z" fill="black"/>
<path d="M306.382 135.074C303.68 133.377 300.471 133.207 297.6 134.395C299.795 134.055 302.16 134.395 304.186 135.753C308.916 138.638 310.267 144.917 307.058 149.838C305.707 151.875 303.849 153.402 301.653 154.251C304.693 153.742 307.564 152.045 309.253 149.329C312.462 144.408 311.111 137.959 306.382 135.074Z" fill="black"/>
<path d="M303.511 146.784C298.444 145.596 290 145.596 284.088 154.081C276.15 165.282 283.413 184.459 296.418 184.459C306.213 184.459 312.969 179.538 314.996 171.222C316.009 166.809 321.076 150.687 303.511 146.784Z" fill="black"/>
<path d="M303.511 146.784C303.173 146.614 302.667 146.614 302.329 146.614C302.498 146.784 302.667 146.784 302.667 146.953C303.511 147.293 304.187 147.632 304.862 147.972C307.733 149.669 310.774 153.233 311.28 156.627C311.787 160.191 311.956 162.567 311.111 166.131C310.267 169.185 308.578 171.901 306.382 173.937C303.173 176.992 299.12 178.35 294.729 178.519C291.013 178.519 287.804 177.162 285.102 174.956C283.75 173.937 282.737 172.749 281.893 171.561C283.919 178.689 289.324 184.459 296.418 184.459C306.213 184.459 312.969 179.538 314.996 171.222C316.009 166.809 321.076 150.687 303.511 146.784Z" fill="black"/>
<path d="M287.297 176.822C286.621 176.822 285.946 177.331 285.946 178.01C285.946 178.689 286.452 179.198 287.128 179.198C287.804 179.198 288.479 178.689 288.479 178.01C288.479 177.501 287.973 176.822 287.297 176.822Z" fill="white"/>
<path d="M309.591 176.822C308.916 176.822 308.24 177.331 308.24 178.01C308.24 178.689 308.747 179.198 309.422 179.198C310.098 179.198 310.774 178.689 310.774 178.01C310.774 177.501 310.267 176.822 309.591 176.822Z" fill="white"/>
<path d="M314.827 197.357C312.631 196.169 307.733 195.321 304.862 194.302C299.964 192.266 300.977 189.89 302.497 183.611L293.377 180.386C292.195 187.005 293.208 194.642 286.621 192.775C278.514 190.569 274.63 192.096 271.421 202.788L281.386 206.352L278.346 216.534L308.24 220.438C307.902 227.905 308.071 234.524 309.591 240.633L316.854 237.918C317.022 230.79 323.609 201.939 314.827 197.357Z" fill="#FFF3E0"/>
<path d="M312.125 226.208C312.125 224.68 312.293 215.516 312.293 213.989C311.956 214.498 309.253 224.68 308.071 225.02C307.902 230.79 308.409 236.051 309.422 240.973L312.293 239.785C311.449 235.542 311.956 230.79 312.125 226.208Z" fill="#F0BF97"/>
<path d="M302.16 153.911C298.782 153.233 296.249 153.742 294.053 154.76C289.324 156.966 287.466 162.736 287.128 168.846C287.128 169.185 287.128 169.355 287.128 169.694C287.128 173.767 287.297 176.483 287.973 178.689C288.648 180.556 293.209 187.684 297.431 187.684C301.316 187.684 306.889 181.404 307.902 179.877C309.929 176.822 310.267 173.428 310.774 169.525C311.618 162.397 310.098 155.439 302.16 153.911Z" fill="#FFF3E0"/>
<path d="M308.747 195.321L296.755 200.921C296.755 200.921 289.155 195.321 285.27 191.587C285.27 191.587 274.461 190.06 269.225 195.66C266.185 198.885 272.096 203.637 270.914 211.274C268.719 224.002 264.158 248.44 267.367 252.513C270.408 256.416 308.915 257.774 310.436 251.155C311.28 247.252 307.058 247.931 307.058 240.973C307.058 237.748 307.564 231.469 308.747 225.529C309.591 221.117 311.787 219.25 311.956 215.686C312.293 210.425 321.245 210.086 321.076 206.522C320.231 195.66 308.747 195.321 308.747 195.321Z" fill="#B2EBF2"/>
<path fill-rule="evenodd" clip-rule="evenodd" d="M303.173 207.879C303.173 208.389 302.666 209.576 302.329 209.746C298.275 212.292 300.471 221.286 304.862 223.493C306.214 224.136 304.117 226.257 301.199 229.207C297.194 233.257 291.644 238.869 291.35 244.367C291.181 248.44 281.723 244.537 278.683 241.991C275.812 239.615 273.785 241.821 276.488 244.028C279.099 246.059 283.559 248.048 287.688 249.89C291.838 251.741 295.654 253.443 296.924 254.889C298.444 256.586 269.563 255.568 267.198 252.513C264.218 248.73 267.94 227.378 270.244 214.158C270.421 213.145 270.589 212.18 270.745 211.274C271.329 207.504 270.184 204.437 269.24 201.91C268.273 199.317 267.517 197.293 269.056 195.66C274.292 190.06 285.101 191.587 285.101 191.587C288.986 195.321 296.586 200.921 296.586 200.921L308.578 195.321C308.578 195.321 303.004 203.976 303.173 207.879ZM286.001 225.612C288.525 226.453 291.411 227.414 293.546 227.057C297.262 226.378 294.897 224.681 293.715 224.681C289.661 225.19 281.723 215.686 280.203 211.613C279.359 209.407 275.981 208.728 274.63 210.086C273.448 210.934 273.954 213.31 274.799 214.837C275.981 216.874 276.825 219.42 276.15 221.796C274.968 225.36 277.67 226.717 280.879 224.681C281.758 224.199 283.734 224.857 286.001 225.612Z" fill="white"/>
<path d="M280.71 166.47C300.133 168.506 306.214 152.723 306.214 152.723C284.088 145.935 280.71 166.47 280.71 166.47Z" fill="black"/>
<path d="M283.075 193.284C282.568 195.151 283.751 197.357 283.582 199.563C283.413 201.77 286.453 203.806 289.324 201.77C292.195 199.733 296.755 200.921 296.755 200.921L285.271 191.587C285.271 191.587 283.582 191.417 283.075 193.284Z" fill="url(#paint26_linear_1_5581)"/>
<path d="M308.747 195.321L296.755 200.921C297.262 201.091 300.302 200.242 303.004 203.806C304.525 205.843 307.902 205.164 308.071 203.637C308.24 201.261 310.267 197.357 310.267 196.509C310.267 195.321 308.747 195.321 308.747 195.321Z" fill="url(#paint27_linear_1_5581)"/>
</g>
<path fill-rule="evenodd" clip-rule="evenodd" d="M269.046 249.696H327.379C329.072 249.696 330.445 251.102 330.445 252.837V300.6C330.445 302.335 329.072 303.742 327.379 303.742H269.046C267.353 303.742 265.98 302.335 265.98 300.6V252.837C265.98 251.102 267.353 249.696 269.046 249.696ZM327.379 302.971C328.655 302.971 329.692 301.907 329.692 300.6V252.837C329.692 251.531 328.655 250.468 327.379 250.468H269.046C267.77 250.468 266.733 251.531 266.733 252.837V300.6C266.733 301.907 267.77 302.971 269.046 302.971H327.379Z" fill="#B2EBF2"/>
<path d="M277.05 250.517C275.778 250.517 274.742 251.578 274.742 252.883V300.574C274.742 301.879 275.778 302.941 277.05 302.941H322.096V250.517H277.05Z" fill="white"/>
<path d="M298.374 290.761C295.048 290.761 291.994 289.574 289.596 287.597L286.277 291.649C289.576 294.39 293.784 296.036 298.374 296.036C305.832 296.036 312.288 291.695 315.452 285.362L310.796 283.048C308.474 287.628 303.786 290.761 298.374 290.761Z" fill="url(#paint28_linear_1_5581)"/>
<path d="M312.136 279.781C311.89 280.987 311.495 282.133 310.972 283.2L315.346 285.446C316.057 283.976 316.594 282.399 316.922 280.74L312.136 279.781Z" fill="#311B92"/>
<path d="M284.579 277.296C284.579 269.457 290.686 263.102 298.215 263.102V257.838C287.893 257.838 279.524 266.55 279.524 277.296C279.524 283.379 282.205 288.808 286.406 292.376L289.646 288.333C286.556 285.731 284.579 281.755 284.579 277.296Z" fill="#B2EBF2"/>
<path d="M311.921 276.661C311.921 277.674 311.812 278.66 311.613 279.611L316.611 280.586C316.865 279.319 317.001 278.006 317.001 276.661C317.001 266.033 308.594 257.418 298.22 257.418V262.624C305.785 262.624 311.921 268.909 311.921 276.661Z" fill="url(#paint29_linear_1_5581)"/>
<path d="M299.722 277.437C300.319 276.962 300.727 276.21 300.787 275.35V275.351V275.315C300.792 275.253 300.796 274.538 300.796 274.475C300.796 272.911 299.649 271.643 298.235 271.643C296.822 271.644 295.677 272.912 295.677 274.476V275.351L295.686 275.351C295.748 276.211 296.154 276.963 296.753 277.437C295.787 277.51 292.412 278.842 293.171 282.205C294.209 282.206 298.238 282.204 298.238 282.204C298.238 282.204 302.267 282.204 303.304 282.205C303.894 278.751 300.679 277.505 299.722 277.437Z" fill="#A0A9D0"/>
<path d="M308.961 302.323C308.961 302 309.229 301.738 309.558 301.738C309.888 301.738 310.155 302 310.155 302.323C310.155 302.646 309.888 302.907 309.558 302.907C309.229 302.907 308.961 302.646 308.961 302.323Z" fill="#807DFB"/>
<path d="M305.801 302.33C305.801 302.004 306.058 301.74 306.371 301.74C306.685 301.74 306.942 302.004 306.942 302.33C306.942 302.655 306.685 302.919 306.371 302.919C306.058 302.919 305.801 302.655 305.801 302.33Z" fill="#807DFB"/>
<path d="M302.605 302.332C302.605 302.012 302.872 301.753 303.196 301.753C303.524 301.753 303.787 302.012 303.787 302.332C303.787 302.652 303.524 302.912 303.196 302.912C302.872 302.912 302.605 302.652 302.605 302.332Z" fill="#807DFB"/>
<path d="M299.412 302.329C299.412 302.007 299.678 301.745 300.006 301.745C300.337 301.745 300.603 302.007 300.603 302.329C300.603 302.652 300.337 302.914 300.006 302.914C299.678 302.914 299.412 302.652 299.412 302.329Z" fill="#807DFB"/>
<path d="M296.248 302.335C296.248 302.01 296.501 301.746 296.816 301.746C297.133 301.746 297.39 302.01 297.39 302.335C297.39 302.661 297.133 302.925 296.816 302.925C296.501 302.925 296.248 302.661 296.248 302.335Z" fill="#807DFB"/>
<path d="M293.053 302.334C293.053 302.014 293.318 301.754 293.647 301.754C293.969 301.754 294.235 302.014 294.235 302.334C294.235 302.654 293.969 302.914 293.647 302.914C293.318 302.914 293.053 302.654 293.053 302.334Z" fill="#807DFB"/>
<path d="M289.859 302.327C289.859 302.004 290.125 301.742 290.456 301.742C290.785 301.742 291.05 302.004 291.05 302.327C291.05 302.65 290.785 302.912 290.456 302.912C290.125 302.912 289.859 302.65 289.859 302.327Z" fill="#807DFB"/>
<path d="M286.693 302.326C286.693 302.001 286.955 301.737 287.278 301.737C287.604 301.737 287.867 302.001 287.867 302.326C287.867 302.652 287.604 302.917 287.278 302.917C286.955 302.917 286.693 302.652 286.693 302.326Z" fill="#807DFB"/>
<path d="M187.032 140.739C164.292 140.739 144.704 159.253 142.903 182.058C141.102 204.862 158.438 223.377 181.178 223.377C203.917 223.377 223.505 204.862 225.306 182.058C226.882 159.253 209.771 140.739 187.032 140.739Z" fill="url(#paint30_linear_1_5581)"/>
<mask id="mask6_1_5581" style="mask-type:luminance" maskUnits="userSpaceOnUse" x="142" y="140" width="84" height="84">
<path d="M187.032 140.739C164.292 140.739 144.704 159.253 142.903 182.058C141.102 204.862 158.438 223.377 181.178 223.377C203.917 223.377 223.505 204.862 225.306 182.058C226.882 159.253 209.771 140.739 187.032 140.739Z" fill="white"/>
</mask>
<g mask="url(#mask6_1_5581)">
<path d="M166.318 188.606C159.789 194.025 159.789 208.023 158.663 216.829C158.663 216.829 162.491 221.119 171.046 218.184C171.046 218.184 174.874 198.992 173.748 194.928C172.397 191.089 167.669 187.477 166.318 188.606Z" fill="#00BCD4"/>
<path d="M166.318 188.606C165.868 188.831 165.643 189.283 165.192 189.735C165.643 189.96 165.868 190.412 166.093 191.089C168.57 199.444 166.093 209.83 162.491 218.861C164.517 219.313 167.219 219.313 170.821 218.184C170.821 218.184 174.649 198.992 173.523 194.928C172.397 191.089 167.669 187.477 166.318 188.606Z" fill="#D4EEFF"/>
<path d="M166.543 188.154C164.292 189.509 163.841 213.668 162.941 217.958C161.59 224.732 161.365 235.795 161.365 235.795C169.47 240.763 198.739 236.924 198.739 236.924C198.739 236.924 198.964 225.861 199.414 221.345C200.765 210.056 202.566 185.67 201.891 185.67C188.607 181.832 170.371 185.67 166.543 188.154Z" fill="url(#paint31_linear_1_5581)"/>
<path d="M179.602 177.316C179.827 177.768 179.827 182.735 178.476 184.767C177.35 186.574 176.224 189.509 180.502 190.863C184.33 192.218 192.435 189.283 191.759 185.896C190.859 179.8 192.66 170.994 192.66 170.994L179.602 177.316Z" fill="#FFF3E0"/>
<path d="M168.795 153.834C168.795 153.834 166.543 155.415 165.868 157.898C165.192 160.382 167.444 164.672 167.444 164.672C167.444 164.672 171.046 158.124 171.046 156.092C171.046 155.641 168.795 153.834 168.795 153.834Z" fill="#FF6F00"/>
<path d="M178.026 185.896L179.151 183.864C179.151 183.864 176.225 184.316 175.324 187.477C173.973 192.896 175.324 198.089 175.324 198.089C176.225 195.153 180.728 191.089 180.728 191.089C177.35 189.057 178.026 185.896 178.026 185.896Z" fill="#E91E63"/>
<path d="M196.938 166.479C196.037 163.995 193.561 165.801 193.561 165.801C193.561 165.801 194.011 159.931 190.409 155.641C186.806 151.351 182.529 152.48 174.648 154.06C166.993 155.415 168.119 157.899 168.119 157.899C168.119 157.899 167.444 163.995 167.894 170.317C167.894 173.026 170.371 176.639 172.847 180.929C175.324 184.993 179.827 183.187 185.681 180.703C191.534 177.994 191.534 174.833 191.759 174.381C191.759 174.381 192.66 174.833 194.461 173.93C196.262 172.801 198.289 169.64 197.388 166.93C196.938 166.704 196.938 166.704 196.938 166.479Z" fill="#FFF3E0"/>
<path d="M168.119 152.48C166.994 154.286 164.967 160.834 170.146 162.866C175.774 165.124 187.257 158.802 188.833 163.317C190.184 167.156 187.707 169.188 189.058 170.768C189.733 171.672 191.084 171.446 191.535 170.543C191.76 170.317 191.985 167.607 193.336 166.027C193.336 166.027 194.461 165.35 195.362 165.575C195.362 165.575 197.163 161.511 196.037 157.447C192.21 143.222 173.298 144.577 168.119 152.48Z" fill="#FF6F00"/>
<path d="M185.23 147.061C188.608 150.222 182.979 155.867 186.356 159.253C189.283 162.414 190.634 163.318 190.409 165.35C190.184 166.704 189.283 169.865 189.058 170.317L189.283 170.543C189.959 171.446 191.309 171.22 191.76 170.317C191.985 170.091 192.21 167.382 193.561 165.801C193.561 165.801 194.687 165.124 195.587 165.35C195.587 165.35 197.388 161.285 196.263 157.221C194.461 151.125 190.184 147.964 185.23 147.061Z" fill="#FF6F00"/>
<path d="M201.216 185.445C193.335 187.025 191.985 197.186 204.593 217.958C204.593 217.958 213.148 217.507 217.876 213.217C217.876 213.217 210.221 183.638 201.216 185.445Z" fill="#00BCD4"/>
<path d="M191.535 182.058V184.542C191.535 184.542 185.456 192.218 180.502 191.089C180.502 191.089 184.78 195.605 185.456 198.766C185.456 198.766 192.21 193.121 193.786 187.703C194.687 183.638 191.535 182.058 191.535 182.058Z" fill="#E91E63"/>
</g>
<path d="M404.711 133.835C382.038 133.835 362.508 152.35 360.712 175.154C359.141 197.959 376.202 216.473 398.875 216.473C421.548 216.473 441.078 197.959 442.874 175.154C444.445 152.35 427.384 133.835 404.711 133.835Z" fill="url(#paint32_linear_1_5581)"/>
<mask id="mask7_1_5581" style="mask-type:luminance" maskUnits="userSpaceOnUse" x="360" y="133" width="83" height="84">
<path d="M404.711 133.835C382.038 133.835 362.508 152.35 360.712 175.154C359.141 197.959 376.202 216.473 398.875 216.473C421.548 216.473 441.078 197.959 442.874 175.154C444.445 152.35 427.384 133.835 404.711 133.835Z" fill="white"/>
</mask>
<g mask="url(#mask7_1_5581)">
<path d="M378.671 215.57C377.099 217.828 375.977 220.538 374.181 222.796C369.242 229.569 368.345 235.44 365.426 238.601C364.753 239.278 364.079 239.955 362.957 240.181C360.488 240.633 358.916 241.762 357.345 243.342C355.998 244.923 358.692 244.245 357.12 246.277C356.222 247.406 353.528 250.567 353.753 251.019C354.426 251.922 355.324 251.019 356.222 249.89C356.447 250.567 357.345 250.793 358.018 250.116C358.692 250.793 359.59 250.567 360.039 250.116C360.937 250.793 361.834 250.342 362.732 249.213C363.63 247.858 365.651 245.826 368.345 242.213C371.936 237.246 374.855 234.762 377.324 231.15C379.344 227.989 382.936 224.15 384.507 218.506C384.507 217.151 379.12 215.796 378.671 215.57Z" fill="#E8D7B9"/>
<path d="M397.977 142.189C385.63 144.221 385.63 163.187 385.406 166.8C384.957 174.251 381.589 189.605 381.589 189.605C394.609 192.54 423.119 187.347 423.119 187.347C414.14 176.509 416.609 154.156 413.242 148.06C409.201 141.286 402.242 141.512 397.977 142.189Z" fill="black"/>
<path d="M405.834 142.415C407.854 143.318 408.977 145.124 408.977 147.834C408.977 150.995 405.609 154.607 402.242 154.156C401.344 154.156 400.671 153.93 399.773 153.93C395.507 158.897 392.365 164.316 390.344 170.638C387.875 177.638 388.099 183.734 388.324 190.508C402.467 191.185 423.119 187.347 423.119 187.347C414.14 176.509 416.609 154.156 413.242 148.059C411.221 144.673 408.528 143.092 405.834 142.415Z" fill="black"/>
<path d="M407.854 178.767C402.242 180.347 403.813 174.025 403.589 168.606L395.732 171.316C396.405 176.509 396.854 180.121 392.589 181.702C390.12 182.605 386.079 183.282 384.059 184.186C376.426 188.024 378.896 209.925 378.447 215.796L384.059 218.054C385.855 213.086 386.753 207.442 387.202 201.571L412.119 198.41L410.772 190.056L419.303 187.121C417.732 178.315 414.589 176.96 407.854 178.767Z" fill="#FFF3E0"/>
<path d="M409.201 185.089C409.201 185.089 418.629 204.507 421.996 208.345L426.711 203.378C425.139 199.765 421.772 187.573 417.507 181.025L409.201 185.089Z" fill="#FFF3E0"/>
<path d="M456.342 190.734C454.098 191.637 454.547 188.927 452.751 189.83C450.73 190.959 450.057 192.54 448.934 194.798C447.812 196.83 435.69 199.313 427.833 200.668C425.139 201.12 423.792 202.475 422.445 204.958C421.996 205.636 421.098 208.571 422.894 209.022C432.547 211.054 443.771 202.7 449.159 200.668C453.424 199.088 455.669 197.733 457.24 197.056C458.812 196.604 459.261 195.701 458.812 194.798C459.485 194.346 459.934 193.443 459.485 192.766C460.383 192.314 460.383 191.411 459.71 190.959C461.057 190.282 462.179 189.605 461.506 188.927C461.506 188.25 457.689 190.282 456.342 190.734Z" fill="#FFF3E0"/>
<path d="M383.834 202.249C383.609 203.378 383.385 204.732 383.385 206.087C382.936 209.926 382.936 213.764 381.813 217.151L384.058 218.054C385.405 213.99 386.303 209.7 386.752 204.958C386.079 204.732 384.058 202.7 383.834 202.249Z" fill="#FFF3E0"/>
<path d="M405.385 148.06C403.813 147.156 401.568 146.931 398.875 147.382C395.956 147.834 393.936 149.189 392.589 150.995C390.793 153.479 390.12 156.64 390.12 159.801C390.12 162.962 390.12 165.671 391.467 168.155C392.14 169.284 396.181 174.477 399.324 174.477C402.691 174.477 407.18 168.832 407.854 167.252C408.527 165.897 408.976 164.091 409.201 161.607C409.201 161.155 409.425 160.478 409.425 160.026C409.425 159.801 409.425 159.575 409.425 159.349C409.874 154.607 408.976 149.866 405.385 148.06Z" fill="#FFF3E0"/>
<path d="M421.547 181.025C417.731 176.509 408.752 177.638 408.752 177.638C405.16 180.573 398.425 185.315 398.425 185.315L389.222 182.379C389.222 182.379 379.793 182.831 377.997 191.637C377.324 194.572 383.609 194.346 383.16 198.636C382.936 201.571 384.283 203.829 386.303 205.636C386.752 210.377 386.528 215.57 386.079 218.28C385.405 223.924 382.038 223.473 382.263 226.634C382.712 232.053 414.364 230.924 417.282 227.763C420.425 224.376 418.854 204.507 418.405 193.895C418.405 187.798 423.568 183.734 421.547 181.025Z" fill="url(#paint33_linear_1_5581)"/>
<path d="M408.977 170.413C409.65 181.025 407.181 192.54 407.181 192.54C412.568 183.96 414.14 166.348 414.14 166.348C414.14 166.348 408.303 160.252 408.977 170.413Z" fill="black"/>
<path d="M387.201 166.123C384.508 172.445 385.181 185.54 388.773 194.12C388.773 194.12 387.426 182.605 390.12 171.993C391.467 167.026 387.875 164.768 387.201 166.123Z" fill="black"/>
<path d="M390.12 173.574C390.344 170.187 388.773 169.961 387.426 171.767C384.732 175.38 388.997 182.605 392.365 187.573C392.14 187.573 389.671 180.573 390.12 173.574Z" fill="black"/>
<path d="M403.14 144.673C396.854 143.995 393.038 150.543 393.038 150.543C393.038 150.543 397.303 148.285 399.548 151.672C403.14 157.543 405.609 157.994 409.201 160.026C408.303 156.188 410.548 154.607 410.548 151.672C410.323 147.608 408.079 145.124 403.14 144.673Z" fill="black"/>
</g>
<path d="M527.999 230.63C530.448 231.068 550.262 234.354 554.938 236.983C559.836 239.831 554.938 241.583 552.934 243.774C549.817 247.059 540.689 243.116 536.014 242.021C530.003 240.488 526.441 238.516 525.105 236.983C524.215 235.668 524.66 230.192 527.999 230.63Z" fill="#AD1457"/>
<path d="M530.299 235.106C538.425 236.413 542.159 236.631 546.771 237.72C553.58 239.463 552.701 242.076 550.944 243.601C548.089 245.997 543.916 243.819 536.009 241.858C531.616 240.769 526.565 238.591 525.247 237.067C524.369 235.977 527.883 234.671 530.299 235.106Z" fill="#E91E63"/>
<path d="M507.153 213.523C506.698 213.079 507.153 211.97 507.609 211.97C506.926 211.304 507.609 210.195 508.293 210.638C508.976 211.082 510.115 212.191 510.799 212.857C511.938 213.967 513.305 215.298 513.988 216.851C514.216 217.739 515.355 218.182 515.811 218.626C515.128 219.292 512.849 221.511 512.394 222.176C512.166 221.954 511.482 221.067 511.027 220.845C508.748 218.848 508.065 217.961 507.153 217.295C506.47 216.629 506.242 215.964 506.926 215.298C506.47 214.632 506.698 213.745 507.153 213.523Z" fill="#FFD8D8"/>
<path d="M511.432 210.634L512.677 205.449L510.497 204.935L509.251 210.12L511.432 210.634Z" fill="#006064"/>
<path d="M508.666 210.715C508.89 209.827 509.786 209.161 510.907 209.383C511.803 209.605 512.476 210.493 512.251 211.604L509.786 222.042C509.562 222.931 508.666 223.597 507.545 223.375C506.425 223.153 505.977 222.264 506.201 221.154L508.666 210.715Z" fill="url(#paint34_linear_1_5581)"/>
<path fill-rule="evenodd" clip-rule="evenodd" d="M515.613 185.619C512.924 185.175 510.235 185.841 507.994 187.173C503.064 190.283 501.495 196.946 504.856 201.388L505.08 201.61L505.305 201.832C507.77 205.385 512.028 207.162 516.286 206.274H516.51H516.734C517.855 206.052 518.975 205.607 519.871 204.941C524.802 201.832 526.371 195.613 523.457 190.505L523.233 190.283L523.009 190.061C521.44 187.84 518.975 186.285 516.286 185.619H515.838H515.613ZM506.425 200.943L506.201 200.721C503.512 196.724 504.856 191.393 508.89 188.728C510.683 187.618 512.924 187.173 515.165 187.618H515.389H515.838C518.079 188.284 520.096 189.616 521.216 191.393L521.44 191.615L521.664 191.837C523.681 195.835 522.337 200.943 518.527 203.608L518.527 203.609C517.63 204.053 516.734 204.497 515.838 204.719H515.613H515.389C512.028 205.163 508.666 203.831 506.649 201.165L506.425 200.943Z" fill="url(#paint35_linear_1_5581)"/>
<path d="M514.705 217.36C514.705 217.36 522.568 225.533 525.407 227.743C527.154 229.289 530.43 231.277 531.086 233.486C531.741 235.916 528.683 241.881 523.441 236.358C519.947 232.824 510.556 221.999 510.556 221.999C512.74 219.348 514.705 217.36 514.705 217.36Z" fill="#AD1457"/>
<path d="M518.369 227.605C523.143 231.978 527.701 233.072 531.173 235.696C531.173 238.758 527.701 240.944 523.36 236.571C519.888 233.072 510.556 222.356 510.556 222.356C511.207 221.482 511.858 220.825 512.292 220.169C514.028 221.263 516.849 226.074 518.369 227.605Z" fill="#E91E63"/>
<path d="M568.331 350.091C569.654 348.763 569.213 346.327 569.434 344.776C569.654 343.005 574.948 344.555 574.948 344.776C575.389 347.212 575.168 349.648 575.389 352.084C575.389 352.97 575.609 353.856 575.168 354.52C574.727 355.406 573.404 355.627 572.301 355.627C569.875 355.627 567.448 355.849 565.022 356.07C563.037 356.292 560.832 356.513 558.847 355.849C558.405 355.627 557.964 355.406 558.185 354.963C560.832 354.742 566.787 351.641 568.331 350.091Z" fill="#FFD8D8"/>
<path d="M559.067 355.849C560.39 356.292 561.934 356.292 563.037 355.849C563.919 355.627 569.434 354.963 571.198 354.742C573.404 354.742 575.168 353.634 576.05 351.863C576.933 353.191 576.933 355.185 575.168 356.07C574.948 356.292 574.065 356.292 571.419 356.292C568.992 356.292 566.787 357.62 565.243 357.62H557.523C556.861 357.62 556.2 355.849 557.082 354.963C557.744 355.406 558.405 355.627 559.067 355.849Z" fill="#143549"/>
<path d="M528.567 347.987C530.36 347.549 531.033 345.14 531.929 343.826C532.825 342.293 537.083 346.016 537.083 346.235C536.411 348.644 535.067 350.615 534.17 353.024C533.946 353.681 533.722 354.557 533.05 354.995C532.153 355.652 531.033 355.214 529.912 354.776C527.671 353.681 525.43 352.805 523.189 351.929C521.172 351.272 519.155 350.615 517.586 349.082C517.362 348.863 516.914 348.206 517.362 347.987C519.603 348.863 526.326 348.644 528.567 347.987Z" fill="#FFD8D8"/>
<path d="M516.242 347.549C516.466 347.987 516.914 348.644 517.362 349.082C518.483 349.958 519.827 350.615 521.172 350.834C522.068 351.053 527.447 352.805 529.016 353.462C531.033 354.338 533.05 354.119 534.843 353.024C535.067 354.557 534.394 356.309 532.153 356.309C531.705 356.309 531.033 356.09 528.568 354.995C526.326 353.9 523.637 354.119 522.293 353.462L515.345 350.177C514.673 349.739 515.121 347.987 516.242 347.549Z" fill="#006064"/>
<path d="M562.707 278.621C558.716 291.968 538.542 346.012 536.325 349.731C533.221 350.169 529.896 348.856 528.344 346.449C531.891 335.947 542.532 286.936 546.523 273.151C550.957 273.589 562.707 277.965 562.707 278.621Z" fill="#006064"/>
<path d="M572.778 279.707C573.225 289.586 571.66 302.976 572.107 315.708C572.554 326.464 574.791 336.342 575.239 348.855C573.673 349.513 569.87 350.391 566.962 349.294C565.62 344.464 550.408 284.756 552.868 280.366C554.658 277.512 569.422 279.268 572.778 279.707Z" fill="#006064"/>
<path d="M559.884 234.241C569.59 234.241 573.56 242.561 573.339 248.91C573.339 255.916 573.78 280.657 573.56 282.409C573.339 283.942 544.665 284.161 543.783 281.971C543.342 280.876 544.886 241.904 545.989 239.276C548.415 233.584 555.694 234.241 559.884 234.241Z" fill="url(#paint36_linear_1_5581)"/>
<path d="M561.728 240.64L570.388 246.399C570.388 246.399 568.833 248.836 562.616 258.14C559.064 263.236 555.733 265.894 553.735 266.559C552.181 267.002 547.74 266.78 548.184 263.457C548.628 260.134 561.728 240.64 561.728 240.64Z" fill="url(#paint37_linear_1_5581)"/>
<path d="M569.091 241.442L569.983 246.246C569.983 246.246 568.421 248.648 562.172 257.819C558.601 262.842 555.253 265.462 553.244 266.117C552.128 266.554 549.673 266.335 548.557 265.244C556.592 260.876 567.305 248.43 569.091 241.442Z" fill="#AD1457"/>
<path d="M564.324 225.387C564.324 225.387 564.108 231.332 563.893 234.762C563.677 238.191 554.621 237.277 554.621 234.99C554.621 232.247 557.64 231.561 557.855 229.274C558.071 226.988 564.324 225.387 564.324 225.387Z" fill="#FFD8D8"/>
<path d="M552.19 215.792C552.63 214.706 553.73 214.272 554.829 214.055C556.369 213.837 557.909 213.62 559.229 213.837C560.769 214.055 562.088 214.706 563.188 215.792C564.288 217.096 564.728 218.834 564.728 220.572C564.728 222.31 564.508 224.048 564.508 225.785C564.508 226.437 562.088 231.868 556.589 233.606C554.169 234.475 551.09 232.52 550.21 230.13C549.55 228.61 549.77 227.089 549.99 225.351C550.43 222.092 550.65 218.834 552.19 215.792Z" fill="#FFD8D8"/>
<path d="M550.174 215.37C551.685 214.921 553.629 211.558 558.81 212.23C565.072 213.127 568.095 218.284 564.208 228.598C563.777 228.374 562.265 226.805 561.833 225.459C561.401 224.338 559.242 224.114 559.89 217.612C560.106 216.939 554.06 218.284 550.174 215.37Z" fill="black"/>
<path d="M561.42 221.516C562.274 221.299 563.128 221.299 563.769 221.733C564.41 222.384 564.41 223.469 564.196 224.336C563.983 224.987 563.555 225.638 562.915 226.072C562.061 226.723 560.993 226.723 560.139 226.289C557.15 225.204 559.285 222.167 561.42 221.516Z" fill="#FFD8D8"/>
<path d="M549.978 224.537C550.417 224.111 553.05 224.537 554.367 224.964C555.684 225.391 556.342 226.244 556.342 227.311C558.756 226.671 561.17 218.564 561.17 218.564L562.707 220.484C562.707 220.484 559.634 223.044 560.292 226.457C560.512 227.951 562.487 233.071 558.098 235.631C553.708 238.191 548.661 235.417 547.783 231.791C547.563 230.511 548.441 229.444 549.1 227.737C549.539 226.884 548.88 225.817 549.978 224.537Z" fill="black"/>
<path d="M548.226 235.123C548.005 234.021 548.668 233.36 549.552 233.36C549.552 232.699 550.435 232.038 551.098 232.259C551.098 231.597 551.982 231.157 552.423 231.377C552.423 230.275 553.528 229.835 553.97 230.496C554.412 231.157 554.632 233.14 554.632 234.242C554.853 236.005 554.632 238.208 553.97 239.971C553.528 240.852 553.97 245.921 553.97 246.361C552.865 246.361 549.331 246.802 548.226 247.022C548.226 246.582 548.447 241.293 548.447 240.852C548.226 237.767 548.447 236.225 548.226 235.123Z" fill="#FFD8D8"/>
<path d="M549.993 228.733L553.528 230.275C553.97 230.496 553.97 230.716 553.97 231.157C553.97 231.597 553.528 231.597 553.086 231.597L549.773 230.496C549.331 230.275 548.889 229.614 549.11 229.394C549.331 228.733 549.773 228.512 549.993 228.733Z" fill="#FFD8D8"/>
<path d="M549.231 242.255C549.878 242.034 552.034 241.59 554.405 242.034C554.405 242.034 554.621 242.034 554.621 242.255C554.621 242.477 554.621 243.365 554.621 243.808C554.621 244.03 554.405 244.03 554.405 244.03C553.759 243.808 551.603 243.586 549.231 244.252C549.015 244.252 549.015 244.252 549.015 244.03C549.015 243.586 548.8 242.921 549.231 242.255C549.015 242.255 549.015 242.255 549.231 242.255Z" fill="#006064"/>
<path d="M506.981 215.569L508.842 217.73C509.075 217.946 508.842 218.162 508.609 218.162C507.912 218.162 506.283 216.001 506.283 216.001C506.05 215.785 506.05 215.569 506.283 215.353C506.516 215.353 506.748 215.353 506.981 215.569Z" fill="#FFD8D8"/>
<path d="M508.966 211.419C508.966 211.419 512.173 213.343 512.173 214.113C512.173 214.305 511.944 214.69 511.486 214.498L508.05 212.381C507.821 212.189 507.592 211.804 507.821 211.611C508.05 211.419 508.508 211.226 508.966 211.419Z" fill="#FFD8D8"/>
<path d="M508.424 212.744L511.672 215.152C511.904 215.353 511.672 215.754 511.44 215.754C510.512 215.754 507.496 213.547 507.496 213.547C507.264 213.346 507.264 212.945 507.496 212.543C507.728 212.543 508.192 212.543 508.424 212.744Z" fill="#FFD8D8"/>
<path d="M507.632 214.713L510.458 217.108C510.694 217.326 510.458 217.761 510.223 217.761C509.28 217.761 506.69 215.584 506.69 215.584C506.454 215.366 506.454 214.931 506.69 214.713C506.925 214.496 507.396 214.496 507.632 214.713Z" fill="#FFD8D8"/>
<path d="M548.16 245.029C548.16 245.029 550.479 244.361 554.422 244.806C554.422 244.806 555.581 255.929 555.813 261.046C556.277 268.831 548.856 267.052 547.928 264.827C547.232 262.603 546.768 259.933 547 257.486C547.464 253.704 548.16 245.029 548.16 245.029Z" fill="url(#paint38_linear_1_5581)"/>
<path d="M551.974 264.244C555.668 258.961 553.06 252.137 552.191 246.194C552.191 245.534 551.974 245.094 551.539 244.653C552.191 244.653 553.06 244.653 553.712 244.653C553.712 244.653 554.799 255.659 555.016 260.722C555.234 266.225 551.539 266.885 549.366 266.005C550.452 266.005 551.322 265.345 551.974 264.244Z" fill="#AD1457"/>
<ellipse cx="2.22348" cy="2.20758" rx="2.22348" ry="2.20758" transform="matrix(-1 0 0 1 554.217 240.238)" fill="#D1D9E8"/>
<ellipse cx="2.22348" cy="2.20758" rx="2.22348" ry="2.20758" transform="matrix(-1 0 0 1 554.217 240.238)" fill="url(#paint39_linear_1_5581)"/>
<path d="M217.55 37.8223H161.701C156.215 37.8223 151.767 42.356 151.767 47.9483V82.9974C151.761 84.2544 152.25 85.4625 153.126 86.3557C154.002 87.2488 155.194 87.7539 156.439 87.7598H191.906C193.087 91.8845 196.048 97.5696 203.509 100.104L201.403 87.7598H217.55C218.795 87.7539 219.987 87.2488 220.863 86.3557C221.739 85.4625 222.228 84.2544 222.222 82.9974V42.5847C222.228 41.3276 221.739 40.1196 220.863 39.2264C219.987 38.3332 218.795 37.8281 217.55 37.8223Z" fill="#B2EBF2"/>
<path d="M216.492 39.0356H162.221C159.661 39.0356 157.205 40.061 155.395 41.8863C153.585 43.7115 152.568 46.187 152.568 48.7682V82.454C152.568 84.9796 154.599 87.027 157.103 87.027H191.57C192.717 90.9911 195.599 96.4551 202.844 98.8905L200.792 87.0309H216.485C218.99 87.0309 221.021 84.9835 221.021 82.4579V43.6125C221.023 41.088 218.996 39.0393 216.492 39.0356Z" fill="url(#paint40_linear_1_5581)"/>
<rect x="174.585" y="47.5286" width="28.0217" height="3.63982" fill="#B2EBF2"/>
<rect x="191.798" y="54.4037" width="10.4081" height="3.63982" fill="#B2EBF2"/>
<rect x="181.39" y="60.8745" width="20.8161" height="3.63982" fill="#B2EBF2"/>
<rect x="176.586" y="67.3452" width="25.2196" height="3.63982" fill="#B2EBF2"/>
<rect x="188.596" y="73.8162" width="13.2102" height="3.63982" fill="#B2EBF2"/>
<path d="M115.071 18.4099H174.453C176.958 18.4099 178.988 20.4573 178.988 22.9829V61.8283C178.988 64.3538 176.958 66.4012 174.453 66.4012H139.993C138.847 70.3653 135.965 75.8294 128.719 78.2648L130.765 66.4012H115.071C112.566 66.4012 110.535 64.3538 110.535 61.8283V22.9868C110.534 21.7733 111.012 20.6091 111.862 19.7507C112.713 18.8922 113.867 18.4099 115.071 18.4099Z" fill="#D1C4E9"/>
<rect x="130.551" y="25.6896" width="28.0217" height="3.63982" fill="url(#paint41_linear_1_5581)"/>
<rect x="130.951" y="32.1604" width="10.4081" height="3.63982" fill="url(#paint42_linear_1_5581)"/>
<rect x="130.951" y="39.0356" width="20.8161" height="3.63982" fill="url(#paint43_linear_1_5581)"/>
<rect x="131.351" y="45.5063" width="25.2196" height="3.63982" fill="url(#paint44_linear_1_5581)"/>
<rect x="131.351" y="51.9772" width="13.2102" height="3.63982" fill="url(#paint45_linear_1_5581)"/>
<defs>
<linearGradient id="paint0_linear_1_5581" x1="359.203" y1="314.904" x2="338.286" y2="292.48" gradientUnits="userSpaceOnUse">
<stop stop-color="#F48FB1"/>
<stop offset="1" stop-color="#E91E63"/>
</linearGradient>
<linearGradient id="paint1_linear_1_5581" x1="366.927" y1="341.147" x2="352.474" y2="311.012" gradientUnits="userSpaceOnUse">
<stop stop-color="#80DEEA"/>
<stop offset="1" stop-color="#00BCD4"/>
</linearGradient>
<linearGradient id="paint2_linear_1_5581" x1="309.23" y1="652.287" x2="41.1168" y2="489.644" gradientUnits="userSpaceOnUse">
<stop stop-color="#D1C4E9"/>
<stop offset="1" stop-color="#8C67F6"/>
</linearGradient>
<linearGradient id="paint3_linear_1_5581" x1="165.387" y1="315.677" x2="165.387" y2="276.503" gradientUnits="userSpaceOnUse">
<stop stop-color="#EAE4F6"/>
<stop offset="1" stop-color="#D1C4E9"/>
</linearGradient>
<linearGradient id="paint4_linear_1_5581" x1="189.378" y1="271.826" x2="184.972" y2="262.781" gradientUnits="userSpaceOnUse">
<stop stop-color="#80DEEA"/>
<stop offset="1" stop-color="#00BCD4"/>
</linearGradient>
<linearGradient id="paint5_linear_1_5581" x1="196.33" y1="264.442" x2="178.33" y2="252.95" gradientUnits="userSpaceOnUse">
<stop stop-color="#F48FB1"/>
<stop offset="1" stop-color="#E91E63"/>
</linearGradient>
<linearGradient id="paint6_linear_1_5581" x1="218.669" y1="283.906" x2="195.325" y2="271.756" gradientUnits="userSpaceOnUse">
<stop stop-color="#E91E63"/>
<stop offset="1" stop-color="#F48FB1"/>
</linearGradient>
<linearGradient id="paint7_linear_1_5581" x1="202.495" y1="366.141" x2="202.03" y2="360.35" gradientUnits="userSpaceOnUse">
<stop stop-color="#80DEEA"/>
<stop offset="1" stop-color="#00BCD4"/>
</linearGradient>
<linearGradient id="paint8_linear_1_5581" x1="52.478" y1="197.906" x2="52.478" y2="157.635" gradientUnits="userSpaceOnUse">
<stop stop-color="#EAE4F6"/>
<stop offset="1" stop-color="#D1C4E9"/>
</linearGradient>
<linearGradient id="paint9_linear_1_5581" x1="47.2103" y1="221.925" x2="19.0504" y2="190.381" gradientUnits="userSpaceOnUse">
<stop stop-color="#CE93D8"/>
<stop offset="1" stop-color="#673AB7"/>
</linearGradient>
<linearGradient id="paint10_linear_1_5581" x1="449.61" y1="375.403" x2="383.931" y2="343.66" gradientUnits="userSpaceOnUse">
<stop stop-color="#CE93D8"/>
<stop offset="1" stop-color="#673AB7"/>
</linearGradient>
<linearGradient id="paint11_linear_1_5581" x1="135.261" y1="356.939" x2="134.817" y2="351.143" gradientUnits="userSpaceOnUse">
<stop stop-color="#80DEEA"/>
<stop offset="1" stop-color="#00BCD4"/>
</linearGradient>
<linearGradient id="paint12_linear_1_5581" x1="276.795" y1="327.59" x2="262.846" y2="312.101" gradientUnits="userSpaceOnUse">
<stop stop-color="#CE93D8"/>
<stop offset="1" stop-color="#673AB7"/>
</linearGradient>
<linearGradient id="paint13_linear_1_5581" x1="296.369" y1="327.59" x2="282.42" y2="312.101" gradientUnits="userSpaceOnUse">
<stop stop-color="#CE93D8"/>
<stop offset="1" stop-color="#673AB7"/>
</linearGradient>
<linearGradient id="paint14_linear_1_5581" x1="314.792" y1="327.59" x2="300.843" y2="312.101" gradientUnits="userSpaceOnUse">
<stop stop-color="#CE93D8"/>
<stop offset="1" stop-color="#673AB7"/>
</linearGradient>
<linearGradient id="paint15_linear_1_5581" x1="74.0221" y1="288.149" x2="34.1626" y2="264.415" gradientUnits="userSpaceOnUse">
<stop stop-color="#CE93D8"/>
<stop offset="1" stop-color="#673AB7"/>
</linearGradient>
<linearGradient id="paint16_linear_1_5581" x1="91.6553" y1="386.162" x2="-4.35893" y2="316.625" gradientUnits="userSpaceOnUse">
<stop stop-color="#CE93D8"/>
<stop offset="1" stop-color="#673AB7"/>
</linearGradient>
<linearGradient id="paint17_linear_1_5581" x1="393.074" y1="131.139" x2="366.885" y2="77.7848" gradientUnits="userSpaceOnUse">
<stop stop-color="#9F7FF7"/>
<stop offset="1" stop-color="#8C67F6"/>
</linearGradient>
<linearGradient id="paint18_linear_1_5581" x1="472.347" y1="145.338" x2="468.484" y2="141.908" gradientUnits="userSpaceOnUse">
<stop stop-color="#F48FB1"/>
<stop offset="1" stop-color="#E91E63"/>
</linearGradient>
<linearGradient id="paint19_linear_1_5581" x1="384.856" y1="389.395" x2="379.579" y2="383.143" gradientUnits="userSpaceOnUse">
<stop stop-color="#F48FB1"/>
<stop offset="1" stop-color="#E91E63"/>
</linearGradient>
<linearGradient id="paint20_linear_1_5581" x1="255.558" y1="228.69" x2="248.501" y2="236.933" gradientUnits="userSpaceOnUse">
<stop stop-color="#F48FB1"/>
<stop offset="1" stop-color="#E91E63"/>
</linearGradient>
<linearGradient id="paint21_linear_1_5581" x1="275.385" y1="228.69" x2="268.328" y2="236.933" gradientUnits="userSpaceOnUse">
<stop stop-color="#F48FB1"/>
<stop offset="1" stop-color="#E91E63"/>
</linearGradient>
<linearGradient id="paint22_linear_1_5581" x1="294.816" y1="228.69" x2="287.759" y2="236.933" gradientUnits="userSpaceOnUse">
<stop stop-color="#F48FB1"/>
<stop offset="1" stop-color="#E91E63"/>
</linearGradient>
<linearGradient id="paint23_linear_1_5581" x1="314.643" y1="228.69" x2="307.586" y2="236.933" gradientUnits="userSpaceOnUse">
<stop stop-color="#F48FB1"/>
<stop offset="1" stop-color="#E91E63"/>
</linearGradient>
<linearGradient id="paint24_linear_1_5581" x1="334.154" y1="228.69" x2="327.125" y2="237.096" gradientUnits="userSpaceOnUse">
<stop stop-color="#F48FB1"/>
<stop offset="1" stop-color="#E91E63"/>
</linearGradient>
<linearGradient id="paint25_linear_1_5581" x1="303.418" y1="8.00032" x2="185.884" y2="138.156" gradientUnits="userSpaceOnUse">
<stop stop-color="#CE93D8"/>
<stop offset="1" stop-color="#673AB7"/>
</linearGradient>
<linearGradient id="paint26_linear_1_5581" x1="285.766" y1="191.149" x2="281.426" y2="197.568" gradientUnits="userSpaceOnUse">
<stop stop-color="#80DEEA"/>
<stop offset="1" stop-color="#00BCD4"/>
</linearGradient>
<linearGradient id="paint27_linear_1_5581" x1="299.513" y1="194.937" x2="295.83" y2="200.961" gradientUnits="userSpaceOnUse">
<stop stop-color="#80DEEA"/>
<stop offset="1" stop-color="#00BCD4"/>
</linearGradient>
<linearGradient id="paint28_linear_1_5581" x1="292.232" y1="296.547" x2="288.596" y2="286.899" gradientUnits="userSpaceOnUse">
<stop stop-color="#F48FB1"/>
<stop offset="1" stop-color="#E91E63"/>
</linearGradient>
<linearGradient id="paint29_linear_1_5581" x1="309.483" y1="313.299" x2="278.279" y2="285.229" gradientUnits="userSpaceOnUse">
<stop stop-color="#CE93D8"/>
<stop offset="1" stop-color="#673AB7"/>
</linearGradient>
<linearGradient id="paint30_linear_1_5581" x1="159.642" y1="137.489" x2="125.068" y2="178.316" gradientUnits="userSpaceOnUse">
<stop stop-color="#80DEEA"/>
<stop offset="1" stop-color="#00BCD4"/>
</linearGradient>
<linearGradient id="paint31_linear_1_5581" x1="169.667" y1="181.91" x2="146.809" y2="202.131" gradientUnits="userSpaceOnUse">
<stop stop-color="#F48FB1"/>
<stop offset="1" stop-color="#E91E63"/>
</linearGradient>
<linearGradient id="paint32_linear_1_5581" x1="359.272" y1="105.613" x2="302.719" y2="213.678" gradientUnits="userSpaceOnUse">
<stop stop-color="#F48FB1"/>
<stop offset="1" stop-color="#FFB3CD"/>
</linearGradient>
<linearGradient id="paint33_linear_1_5581" x1="386.943" y1="175.432" x2="364.506" y2="197.504" gradientUnits="userSpaceOnUse">
<stop stop-color="#80DEEA"/>
<stop offset="1" stop-color="#00BCD4"/>
</linearGradient>
<linearGradient id="paint34_linear_1_5581" x1="511.039" y1="208.786" x2="515.906" y2="211.297" gradientUnits="userSpaceOnUse">
<stop stop-color="#80DEEA"/>
<stop offset="1" stop-color="#00BCD4"/>
</linearGradient>
<linearGradient id="paint35_linear_1_5581" x1="520.459" y1="184.655" x2="529.19" y2="195.374" gradientUnits="userSpaceOnUse">
<stop stop-color="#80DEEA"/>
<stop offset="1" stop-color="#00BCD4"/>
</linearGradient>
<linearGradient id="paint36_linear_1_5581" x1="575.619" y1="229.646" x2="607.248" y2="267.468" gradientUnits="userSpaceOnUse">
<stop stop-color="#E91E63"/>
<stop offset="1" stop-color="#F381A7"/>
<stop offset="1" stop-color="#F48FB1"/>
</linearGradient>
<linearGradient id="paint37_linear_1_5581" x1="563.718" y1="235.094" x2="578.375" y2="248.25" gradientUnits="userSpaceOnUse">
<stop stop-color="#F48FB1"/>
<stop offset="1" stop-color="#E91E63"/>
</linearGradient>
<linearGradient id="paint38_linear_1_5581" x1="553.166" y1="239.961" x2="562.137" y2="243.767" gradientUnits="userSpaceOnUse">
<stop stop-color="#F48FB1"/>
<stop offset="1" stop-color="#E91E63"/>
</linearGradient>
<linearGradient id="paint39_linear_1_5581" x1="0.907742" y1="-0.173602" x2="-0.937177" y2="2.02083" gradientUnits="userSpaceOnUse">
<stop stop-color="#80DEEA"/>
<stop offset="1" stop-color="#00BCD4"/>
</linearGradient>
<linearGradient id="paint40_linear_1_5581" x1="176.618" y1="17.625" x2="135.558" y2="78.3564" gradientUnits="userSpaceOnUse">
<stop stop-color="#80DEEA"/>
<stop offset="1" stop-color="#00BCD4"/>
</linearGradient>
<linearGradient id="paint41_linear_1_5581" x1="147.355" y1="20.5501" x2="146.217" y2="30.2764" gradientUnits="userSpaceOnUse">
<stop stop-color="#CE93D8"/>
<stop offset="1" stop-color="#673AB7"/>
</linearGradient>
<linearGradient id="paint42_linear_1_5581" x1="137.193" y1="27.021" x2="134.366" y2="35.9898" gradientUnits="userSpaceOnUse">
<stop stop-color="#CE93D8"/>
<stop offset="1" stop-color="#673AB7"/>
</linearGradient>
<linearGradient id="paint43_linear_1_5581" x1="143.434" y1="33.8962" x2="141.918" y2="43.5169" gradientUnits="userSpaceOnUse">
<stop stop-color="#CE93D8"/>
<stop offset="1" stop-color="#673AB7"/>
</linearGradient>
<linearGradient id="paint44_linear_1_5581" x1="146.475" y1="40.3669" x2="145.214" y2="50.0625" gradientUnits="userSpaceOnUse">
<stop stop-color="#CE93D8"/>
<stop offset="1" stop-color="#673AB7"/>
</linearGradient>
<linearGradient id="paint45_linear_1_5581" x1="139.273" y1="46.8377" x2="136.967" y2="56.1247" gradientUnits="userSpaceOnUse">
<stop stop-color="#CE93D8"/>
<stop offset="1" stop-color="#673AB7"/>
</linearGradient>
</defs>
</svg>
